M48
;Layer_Color=9474304
;FILE_FORMAT=2:5
INCH
;TYPE=PLATED
T1F00S00C0.02165
T2F00S00C0.02559
T3F00S00C0.02756
T4F00S00C0.02800
T5F00S00C0.02953
T6F00S00C0.03150
T7F00S00C0.03346
T8F00S00C0.03740
T9F00S00C0.03937
T10F00S00C0.04134
T11F00S00C0.07874
T12F00S00C0.11811
%
T01
X0307500Y0019031
X0307500Y0036748
X0152500Y0110531
X0152500Y0128248
X0159358Y0172000
X0141642Y0172000
X0070000Y0062358
X0059500Y0062358
X0059500Y0044642
X0070000Y0044642
X0049000Y0044642
X0049000Y0062358
X0141642Y0183000
X0141642Y0194000
X0159358Y0194000
X0159358Y0183000
T02
X0347500Y0153394
X0347500Y0172606
T03
X0370000Y0138657
X0370000Y0158343
X0370000Y0166157
X0290342Y0167500
X0270657Y0167500
X0270657Y0142000
X0290342Y0142000
X0217500Y0124843
X0217500Y0105157
X0211842Y0035000
X0345142Y0064720
X0362858Y0064720
X0362858Y0092279
X0345142Y0092279
X0192157Y0035000
X0178842Y0035000
X0159158Y0035000
X0099500Y0036843
X0099500Y0017157
X0073000Y0017157
X0073000Y0036843
X0071842Y0077000
X0080658Y0077000
X0100343Y0077000
X0086500Y0097000
X0078626Y0097000
X0065437Y0097000
X0057563Y0097000
X0084500Y0164563
X0084500Y0172437
X0019437Y0126000
X0011563Y0126000
X0052157Y0077000
X0019437Y0190500
X0011563Y0190500
X0084500Y0211126
X0084500Y0219000
X0370000Y0185843
T04
X0331000Y0046000
X0349500Y0045000
X0051000Y0124500
T05
X0227996Y0058595
X0227996Y0068594
X0227996Y0078594
X0227996Y0088595
X0241000Y0070004
X0251000Y0070004
X0261000Y0070004
X0271000Y0070004
X0271000Y0112996
X0261000Y0112996
X0251000Y0112996
X0241000Y0112996
X0185004Y0088595
X0185004Y0078594
X0185004Y0068594
X0185004Y0058595
X0055500Y0139000
X0055500Y0149000
X0055500Y0159000
X0055500Y0169000
X0055500Y0197000
X0055500Y0207000
X0055500Y0217000
X0055500Y0227000
T06
X0372687Y0109500
X0344735Y0109500
X0287000Y0105476
X0287000Y0077524
X0291500Y0047476
X0273000Y0047476
X0260976Y0044904
X0260976Y0022096
X0273000Y0019524
X0291500Y0019524
X0233024Y0022096
X0233024Y0044904
X0172500Y0060524
X0155500Y0060524
X0155500Y0088476
X0172500Y0088476
X0173000Y0109524
X0193500Y0109524
X0193500Y0137476
X0173000Y0137476
X0131000Y0137976
X0113500Y0137976
X0113500Y0110024
X0131000Y0110024
X0033000Y0117976
X0033000Y0090024
X0016500Y0150913
X0016500Y0165087
T07
X0301898Y0078500
X0301898Y0088500
X0301898Y0098500
X0301898Y0108500
X0301898Y0118500
X0301898Y0128500
X0301898Y0138500
X0301898Y0148500
X0301898Y0158500
X0301898Y0168500
X0333000Y0168500
X0333000Y0158500
X0333000Y0148500
X0333000Y0138500
X0333000Y0128500
X0333000Y0118500
X0333000Y0108500
X0333000Y0098500
X0333000Y0088500
X0333000Y0078500
X0333000Y0178500
X0333000Y0188500
X0333000Y0198500
X0333000Y0208500
X0301898Y0208500
X0301898Y0198500
X0301898Y0188500
X0301898Y0178500
T08
X0020748Y0054579
X0028622Y0054579
X0028622Y0064421
X0020748Y0064421
T09
X0116500Y0063500
X0126500Y0063500
X0126500Y0089500
X0116500Y0089500
T10
X0330500Y0016500
X0349398Y0016500
X0175949Y0220000
X0157051Y0220000
X0129449Y0220000
X0110551Y0220000
X0212551Y0220000
X0231449Y0220000
X0262000Y0220000
X0280898Y0220000
T11
X0013976Y0035799
X0013976Y0083201
T12
X0014000Y0016500
X0378000Y0016500
X0014000Y0221000
X0378000Y0221000
M30
