G04*
G04 #@! TF.GenerationSoftware,Altium Limited,Altium Designer,22.4.2 (48)*
G04*
G04 Layer_Physical_Order=2*
G04 Layer_Color=16711680*
%FSLAX25Y25*%
%MOIN*%
G70*
G04*
G04 #@! TF.SameCoordinates,243CEC23-02B4-465D-BAF0-28B1483BFC4A*
G04*
G04*
G04 #@! TF.FilePolarity,Positive*
G04*
G01*
G75*
%ADD31C,0.06000*%
%ADD32C,0.01500*%
%ADD33C,0.03000*%
%ADD34C,0.04528*%
%ADD35R,0.04528X0.04528*%
%ADD36R,0.05039X0.05039*%
%ADD37C,0.05039*%
%ADD38C,0.05906*%
%ADD39R,0.05906X0.05906*%
%ADD40C,0.04134*%
%ADD41C,0.09055*%
%ADD42C,0.05433*%
%ADD43R,0.04528X0.04528*%
%ADD44R,0.03780X0.03780*%
%ADD45C,0.03780*%
%ADD46C,0.04764*%
%ADD47R,0.03780X0.03780*%
%ADD48C,0.06221*%
%ADD49C,0.04331*%
%ADD50C,0.11811*%
%ADD51C,0.04173*%
%ADD52R,0.04331X0.04331*%
%ADD53R,0.04331X0.04331*%
%ADD54C,0.05000*%
%ADD55C,0.00800*%
G04:AMPARAMS|DCode=56|XSize=29.02mil|YSize=10.39mil|CornerRadius=2.6mil|HoleSize=0mil|Usage=FLASHONLY|Rotation=180.000|XOffset=0mil|YOffset=0mil|HoleType=Round|Shape=RoundedRectangle|*
%AMROUNDEDRECTD56*
21,1,0.02902,0.00520,0,0,180.0*
21,1,0.02382,0.01039,0,0,180.0*
1,1,0.00520,-0.01191,0.00260*
1,1,0.00520,0.01191,0.00260*
1,1,0.00520,0.01191,-0.00260*
1,1,0.00520,-0.01191,-0.00260*
%
%ADD56ROUNDEDRECTD56*%
G04:AMPARAMS|DCode=57|XSize=29.02mil|YSize=10.39mil|CornerRadius=2.6mil|HoleSize=0mil|Usage=FLASHONLY|Rotation=90.000|XOffset=0mil|YOffset=0mil|HoleType=Round|Shape=RoundedRectangle|*
%AMROUNDEDRECTD57*
21,1,0.02902,0.00520,0,0,90.0*
21,1,0.02382,0.01039,0,0,90.0*
1,1,0.00520,0.00260,0.01191*
1,1,0.00520,0.00260,-0.01191*
1,1,0.00520,-0.00260,-0.01191*
1,1,0.00520,-0.00260,0.01191*
%
%ADD57ROUNDEDRECTD57*%
%ADD58R,0.09646X0.09646*%
G36*
X362951Y208500D02*
X363145Y207524D01*
X363698Y206698D01*
X364525Y206145D01*
X365500Y205951D01*
X393059D01*
X393113Y205962D01*
X393500Y205645D01*
Y30608D01*
X366000D01*
X365024Y30414D01*
X364198Y29862D01*
X363645Y29035D01*
X363451Y28059D01*
Y500D01*
X363474Y387D01*
X363156Y0D01*
X30108D01*
Y27559D01*
X29914Y28534D01*
X29362Y29362D01*
X28534Y29914D01*
X27559Y30108D01*
X16025D01*
X15959Y30608D01*
X16110Y30648D01*
X17370Y31376D01*
X18399Y32405D01*
X19127Y33666D01*
X19504Y35072D01*
Y35299D01*
X8449D01*
Y35072D01*
X8826Y33666D01*
X9553Y32405D01*
X10582Y31376D01*
X11843Y30648D01*
X11993Y30608D01*
X11927Y30108D01*
X0D01*
Y205951D01*
X27500D01*
X28475Y206145D01*
X29302Y206698D01*
X29855Y207524D01*
X30049Y208500D01*
Y236000D01*
X362951D01*
Y208500D01*
D02*
G37*
%LPC*%
G36*
X56061Y231264D02*
X54939D01*
X53854Y230973D01*
X52882Y230412D01*
X52088Y229618D01*
X51527Y228646D01*
X51236Y227561D01*
Y226439D01*
X51527Y225354D01*
X52088Y224382D01*
X52882Y223588D01*
X53854Y223027D01*
X54939Y222736D01*
X56061D01*
X57146Y223027D01*
X58118Y223588D01*
X58912Y224382D01*
X59473Y225354D01*
X59764Y226439D01*
Y227561D01*
X59473Y228646D01*
X58912Y229618D01*
X58118Y230412D01*
X57146Y230973D01*
X56061Y231264D01*
D02*
G37*
G36*
X111092Y224110D02*
X111051D01*
Y220500D01*
X114661D01*
Y220541D01*
X114381Y221586D01*
X113840Y222524D01*
X113075Y223289D01*
X112138Y223830D01*
X111092Y224110D01*
D02*
G37*
G36*
X110051D02*
X110010D01*
X108965Y223830D01*
X108027Y223289D01*
X107262Y222524D01*
X106721Y221586D01*
X106441Y220541D01*
Y220500D01*
X110051D01*
Y224110D01*
D02*
G37*
G36*
X56000Y220245D02*
Y217500D01*
X58745D01*
X58541Y218260D01*
X58112Y219004D01*
X57504Y219612D01*
X56760Y220041D01*
X56000Y220245D01*
D02*
G37*
G36*
X55000D02*
X54240Y220041D01*
X53496Y219612D01*
X52888Y219004D01*
X52459Y218260D01*
X52255Y217500D01*
X55000D01*
Y220245D01*
D02*
G37*
G36*
X114661Y219500D02*
X111051D01*
Y215890D01*
X111092D01*
X112138Y216170D01*
X113075Y216711D01*
X113840Y217476D01*
X114381Y218413D01*
X114661Y219459D01*
Y219500D01*
D02*
G37*
G36*
X110051D02*
X106441D01*
Y219459D01*
X106721Y218413D01*
X107262Y217476D01*
X108027Y216711D01*
X108965Y216170D01*
X110010Y215890D01*
X110051D01*
Y219500D01*
D02*
G37*
G36*
X58745Y216500D02*
X56000D01*
Y213755D01*
X56760Y213959D01*
X57504Y214388D01*
X58112Y214996D01*
X58541Y215740D01*
X58745Y216500D01*
D02*
G37*
G36*
X55000D02*
X52255D01*
X52459Y215740D01*
X52888Y214996D01*
X53496Y214388D01*
X54240Y213959D01*
X55000Y213755D01*
Y216500D01*
D02*
G37*
G36*
X87665Y210626D02*
X85000D01*
Y207961D01*
X87665D01*
Y210626D01*
D02*
G37*
G36*
X84000D02*
X81335D01*
Y207961D01*
X84000D01*
Y210626D01*
D02*
G37*
G36*
X176622Y225110D02*
X175276D01*
X173976Y224762D01*
X172811Y224089D01*
X171860Y223138D01*
X171187Y221972D01*
X170839Y220673D01*
Y219327D01*
X171053Y218527D01*
X157397Y204871D01*
X157229Y204652D01*
X156729Y204822D01*
Y214890D01*
X157724D01*
X159024Y215238D01*
X160189Y215911D01*
X161140Y216862D01*
X161813Y218027D01*
X162161Y219327D01*
Y220673D01*
X161813Y221972D01*
X161140Y223138D01*
X160189Y224089D01*
X159024Y224762D01*
X157724Y225110D01*
X156378D01*
X155079Y224762D01*
X153913Y224089D01*
X152962Y223138D01*
X152289Y221972D01*
X151941Y220673D01*
Y219327D01*
X152135Y218602D01*
X151994Y218461D01*
X151553Y217887D01*
X151276Y217218D01*
X151182Y216500D01*
Y188403D01*
X151276Y187685D01*
X151553Y187016D01*
X151994Y186441D01*
X155468Y182967D01*
Y180466D01*
X155007Y180274D01*
X149274Y186007D01*
Y202949D01*
X149179Y203667D01*
X148902Y204336D01*
X148461Y204910D01*
X134450Y218921D01*
X134559Y219327D01*
Y220673D01*
X134211Y221972D01*
X133538Y223138D01*
X132587Y224089D01*
X131421Y224762D01*
X130122Y225110D01*
X128776D01*
X127476Y224762D01*
X126311Y224089D01*
X125360Y223138D01*
X124687Y221972D01*
X124339Y220673D01*
Y219327D01*
X124687Y218027D01*
X125360Y216862D01*
X126311Y215911D01*
X127476Y215238D01*
X128776Y214890D01*
X130122D01*
X130528Y214999D01*
X143726Y201800D01*
Y196667D01*
X143226Y196422D01*
X142757Y196693D01*
X142142Y196858D01*
Y194000D01*
Y191142D01*
X142757Y191307D01*
X143226Y191578D01*
X143726Y191333D01*
Y185667D01*
X143226Y185422D01*
X142757Y185693D01*
X142142Y185858D01*
Y183000D01*
Y180142D01*
X142757Y180307D01*
X143416Y180688D01*
X143954Y181226D01*
X144335Y181885D01*
X144442Y182286D01*
X145000Y182436D01*
X155468Y171967D01*
Y168110D01*
X163248D01*
Y175890D01*
X159391D01*
X156633Y178648D01*
X156824Y179110D01*
X163248D01*
Y186890D01*
X159391D01*
X156729Y189552D01*
Y190110D01*
X163248D01*
Y197890D01*
X162132D01*
Y201761D01*
X175264Y214893D01*
X175276Y214890D01*
X176622D01*
X177921Y215238D01*
X179087Y215911D01*
X180038Y216862D01*
X180711Y218027D01*
X181059Y219327D01*
Y220673D01*
X180711Y221972D01*
X180038Y223138D01*
X179087Y224089D01*
X177921Y224762D01*
X176622Y225110D01*
D02*
G37*
G36*
X333595Y213020D02*
X332405D01*
X331256Y212712D01*
X330225Y212117D01*
X329383Y211275D01*
X328788Y210244D01*
X328480Y209095D01*
Y207905D01*
X328788Y206755D01*
X329383Y205725D01*
X330225Y204883D01*
X331256Y204288D01*
X332405Y203980D01*
X333595D01*
X334745Y204288D01*
X335775Y204883D01*
X336617Y205725D01*
X337212Y206755D01*
X337520Y207905D01*
Y209095D01*
X337212Y210244D01*
X336617Y211275D01*
X335775Y212117D01*
X334745Y212712D01*
X333595Y213020D01*
D02*
G37*
G36*
X281570Y225110D02*
X280225D01*
X278925Y224762D01*
X277760Y224089D01*
X276808Y223138D01*
X276136Y221972D01*
X275787Y220673D01*
Y219327D01*
X276136Y218027D01*
X276808Y216862D01*
X277760Y215911D01*
X278167Y215676D01*
X278218Y215282D01*
X278496Y214613D01*
X278936Y214039D01*
X286436Y206539D01*
X287011Y206098D01*
X287680Y205821D01*
X288398Y205726D01*
X298280D01*
X298281Y205725D01*
X299123Y204883D01*
X300153Y204288D01*
X301303Y203980D01*
X302493D01*
X303642Y204288D01*
X304673Y204883D01*
X305514Y205725D01*
X306109Y206755D01*
X306417Y207905D01*
Y209095D01*
X306109Y210244D01*
X305514Y211275D01*
X304673Y212117D01*
X303642Y212712D01*
X302493Y213020D01*
X301303D01*
X300153Y212712D01*
X299123Y212117D01*
X298281Y211275D01*
X298280Y211274D01*
X289546D01*
X284472Y216348D01*
X284987Y216862D01*
X285660Y218027D01*
X286008Y219327D01*
Y220673D01*
X285660Y221972D01*
X284987Y223138D01*
X284035Y224089D01*
X282870Y224762D01*
X281570Y225110D01*
D02*
G37*
G36*
X56061Y211264D02*
X54939D01*
X53854Y210973D01*
X52882Y210412D01*
X52088Y209618D01*
X51527Y208646D01*
X51236Y207561D01*
Y206439D01*
X51527Y205354D01*
X52088Y204382D01*
X52882Y203588D01*
X53854Y203027D01*
X54939Y202736D01*
X56061D01*
X57146Y203027D01*
X58118Y203588D01*
X58912Y204382D01*
X59473Y205354D01*
X59764Y206439D01*
Y207561D01*
X59473Y208646D01*
X58912Y209618D01*
X58118Y210412D01*
X57146Y210973D01*
X56061Y211264D01*
D02*
G37*
G36*
X58764Y200264D02*
X56000D01*
Y197500D01*
X58764D01*
Y200264D01*
D02*
G37*
G36*
X55000D02*
X52236D01*
Y197500D01*
X55000D01*
Y200264D01*
D02*
G37*
G36*
X141142Y196858D02*
X140526Y196693D01*
X139867Y196312D01*
X139329Y195774D01*
X138949Y195115D01*
X138784Y194500D01*
X141142D01*
Y196858D01*
D02*
G37*
G36*
X333595Y203020D02*
X332405D01*
X331256Y202712D01*
X330225Y202117D01*
X329383Y201275D01*
X328788Y200244D01*
X328480Y199095D01*
Y197905D01*
X328788Y196756D01*
X329383Y195725D01*
X330225Y194883D01*
X331256Y194288D01*
X332405Y193980D01*
X333595D01*
X334745Y194288D01*
X335775Y194883D01*
X336617Y195725D01*
X337212Y196756D01*
X337520Y197905D01*
Y199095D01*
X337212Y200244D01*
X336617Y201275D01*
X335775Y202117D01*
X334745Y202712D01*
X333595Y203020D01*
D02*
G37*
G36*
X262673Y225110D02*
X261327D01*
X260028Y224762D01*
X258862Y224089D01*
X257911Y223138D01*
X257238Y221972D01*
X256890Y220673D01*
Y219327D01*
X257238Y218027D01*
X257911Y216862D01*
X258862Y215911D01*
X259269Y215676D01*
X259321Y215282D01*
X259598Y214613D01*
X260039Y214039D01*
X277539Y196539D01*
X278113Y196098D01*
X278782Y195821D01*
X279500Y195726D01*
X298280D01*
X298281Y195725D01*
X299123Y194883D01*
X300153Y194288D01*
X301303Y193980D01*
X302493D01*
X303642Y194288D01*
X304673Y194883D01*
X305514Y195725D01*
X306109Y196756D01*
X306417Y197905D01*
Y199095D01*
X306109Y200244D01*
X305514Y201275D01*
X304673Y202117D01*
X303642Y202712D01*
X302493Y203020D01*
X301303D01*
X300153Y202712D01*
X299123Y202117D01*
X298281Y201275D01*
X298280Y201274D01*
X280649D01*
X265575Y216348D01*
X266089Y216862D01*
X266762Y218027D01*
X267110Y219327D01*
Y220673D01*
X266762Y221972D01*
X266089Y223138D01*
X265138Y224089D01*
X263972Y224762D01*
X262673Y225110D01*
D02*
G37*
G36*
X58764Y196500D02*
X56000D01*
Y193736D01*
X58764D01*
Y196500D01*
D02*
G37*
G36*
X55000D02*
X52236D01*
Y193736D01*
X55000D01*
Y196500D01*
D02*
G37*
G36*
X141142Y193500D02*
X138784D01*
X138949Y192885D01*
X139329Y192226D01*
X139867Y191688D01*
X140526Y191307D01*
X141142Y191142D01*
Y193500D01*
D02*
G37*
G36*
X22602Y193665D02*
X19937D01*
Y191000D01*
X22602D01*
Y193665D01*
D02*
G37*
G36*
X18937D02*
X16272D01*
Y191000D01*
X18937D01*
Y193665D01*
D02*
G37*
G36*
X22602Y190000D02*
X19937D01*
Y187335D01*
X22602D01*
Y190000D01*
D02*
G37*
G36*
X18937D02*
X16272D01*
Y187335D01*
X18937D01*
Y190000D01*
D02*
G37*
G36*
X370500Y188986D02*
Y186343D01*
X373143D01*
X372950Y187064D01*
X372533Y187786D01*
X371944Y188375D01*
X371222Y188792D01*
X370500Y188986D01*
D02*
G37*
G36*
X369500D02*
X368778Y188792D01*
X368056Y188375D01*
X367467Y187786D01*
X367050Y187064D01*
X366857Y186343D01*
X369500D01*
Y188986D01*
D02*
G37*
G36*
X12111Y194665D02*
X11015D01*
X9955Y194381D01*
X9005Y193833D01*
X8230Y193058D01*
X7682Y192108D01*
X7398Y191048D01*
Y189952D01*
X7682Y188892D01*
X8230Y187942D01*
X9005Y187167D01*
X9955Y186618D01*
X11015Y186335D01*
X12111D01*
X13171Y186618D01*
X14121Y187167D01*
X14896Y187942D01*
X15445Y188892D01*
X15728Y189952D01*
Y191048D01*
X15445Y192108D01*
X14896Y193058D01*
X14121Y193833D01*
X13171Y194381D01*
X12111Y194665D01*
D02*
G37*
G36*
X333595Y193020D02*
X332405D01*
X331256Y192712D01*
X330225Y192117D01*
X329383Y191275D01*
X328788Y190244D01*
X328480Y189095D01*
Y187905D01*
X328788Y186756D01*
X329383Y185725D01*
X330225Y184883D01*
X331256Y184288D01*
X332405Y183980D01*
X333595D01*
X334745Y184288D01*
X335775Y184883D01*
X336617Y185725D01*
X337212Y186756D01*
X337520Y187905D01*
Y189095D01*
X337212Y190244D01*
X336617Y191275D01*
X335775Y192117D01*
X334745Y192712D01*
X333595Y193020D01*
D02*
G37*
G36*
X232122Y225110D02*
X230776D01*
X229476Y224762D01*
X228311Y224089D01*
X227360Y223138D01*
X226687Y221972D01*
X226339Y220673D01*
Y219327D01*
X226687Y218027D01*
X227360Y216862D01*
X228311Y215911D01*
X228675Y215701D01*
Y212500D01*
X228770Y211782D01*
X229047Y211113D01*
X229487Y210539D01*
X253487Y186539D01*
X254062Y186098D01*
X254731Y185821D01*
X255449Y185726D01*
X298280D01*
X298281Y185725D01*
X299123Y184883D01*
X300153Y184288D01*
X301303Y183980D01*
X302493D01*
X303642Y184288D01*
X304673Y184883D01*
X305514Y185725D01*
X306109Y186756D01*
X306417Y187905D01*
Y189095D01*
X306109Y190244D01*
X305514Y191275D01*
X304673Y192117D01*
X303642Y192712D01*
X302493Y193020D01*
X301303D01*
X300153Y192712D01*
X299123Y192117D01*
X298281Y191275D01*
X298280Y191274D01*
X256598D01*
X234223Y213649D01*
Y215701D01*
X234587Y215911D01*
X235538Y216862D01*
X236211Y218027D01*
X236559Y219327D01*
Y220673D01*
X236211Y221972D01*
X235538Y223138D01*
X234587Y224089D01*
X233421Y224762D01*
X232122Y225110D01*
D02*
G37*
G36*
X141142Y185858D02*
X140526Y185693D01*
X139867Y185312D01*
X139329Y184774D01*
X138949Y184115D01*
X138784Y183500D01*
X141142D01*
Y185858D01*
D02*
G37*
G36*
X373143Y185343D02*
X370500D01*
Y182700D01*
X371222Y182893D01*
X371944Y183310D01*
X372533Y183899D01*
X372950Y184621D01*
X373143Y185343D01*
D02*
G37*
G36*
X369500D02*
X366857D01*
X367050Y184621D01*
X367467Y183899D01*
X368056Y183310D01*
X368778Y182893D01*
X369500Y182700D01*
Y185343D01*
D02*
G37*
G36*
X141142Y182500D02*
X138784D01*
X138949Y181885D01*
X139329Y181226D01*
X139867Y180688D01*
X140526Y180307D01*
X141142Y180142D01*
Y182500D01*
D02*
G37*
G36*
X333595Y183020D02*
X332405D01*
X331256Y182712D01*
X330225Y182117D01*
X329383Y181275D01*
X328788Y180245D01*
X328480Y179095D01*
Y177905D01*
X328788Y176755D01*
X329383Y175725D01*
X330225Y174883D01*
X331256Y174288D01*
X332405Y173980D01*
X333595D01*
X334745Y174288D01*
X335775Y174883D01*
X336617Y175725D01*
X337212Y176755D01*
X337520Y177905D01*
Y179095D01*
X337212Y180245D01*
X336617Y181275D01*
X335775Y182117D01*
X334745Y182712D01*
X333595Y183020D01*
D02*
G37*
G36*
X213224Y225110D02*
X211878D01*
X210579Y224762D01*
X209413Y224089D01*
X208462Y223138D01*
X207789Y221972D01*
X207441Y220673D01*
Y219327D01*
X207789Y218027D01*
X208462Y216862D01*
X209413Y215911D01*
X209777Y215701D01*
Y212500D01*
X209872Y211782D01*
X210149Y211113D01*
X210590Y210539D01*
X244590Y176539D01*
X245164Y176098D01*
X245833Y175821D01*
X246551Y175726D01*
X298280D01*
X298281Y175725D01*
X299123Y174883D01*
X300153Y174288D01*
X301303Y173980D01*
X302493D01*
X303642Y174288D01*
X304673Y174883D01*
X305514Y175725D01*
X306109Y176755D01*
X306417Y177905D01*
Y179095D01*
X306109Y180245D01*
X305514Y181275D01*
X304673Y182117D01*
X303642Y182712D01*
X302493Y183020D01*
X301303D01*
X300153Y182712D01*
X299123Y182117D01*
X298281Y181275D01*
X298280Y181274D01*
X247700D01*
X215325Y213649D01*
Y215701D01*
X215689Y215911D01*
X216640Y216862D01*
X217313Y218027D01*
X217661Y219327D01*
Y220673D01*
X217313Y221972D01*
X216640Y223138D01*
X215689Y224089D01*
X214524Y224762D01*
X213224Y225110D01*
D02*
G37*
G36*
X85000Y175580D02*
Y172937D01*
X87643D01*
X87450Y173659D01*
X87033Y174381D01*
X86444Y174970D01*
X85722Y175387D01*
X85000Y175580D01*
D02*
G37*
G36*
X84000Y175580D02*
X83278Y175387D01*
X82556Y174970D01*
X81967Y174381D01*
X81550Y173659D01*
X81357Y172937D01*
X84000D01*
Y175580D01*
D02*
G37*
G36*
X142142Y174858D02*
Y172500D01*
X144500D01*
X144335Y173115D01*
X143954Y173774D01*
X143416Y174312D01*
X142757Y174693D01*
X142142Y174858D01*
D02*
G37*
G36*
X141142Y174858D02*
X140526Y174693D01*
X139867Y174312D01*
X139329Y173774D01*
X138949Y173115D01*
X138784Y172500D01*
X141142D01*
Y174858D01*
D02*
G37*
G36*
X56000Y172245D02*
Y169500D01*
X58745D01*
X58541Y170260D01*
X58112Y171004D01*
X57504Y171612D01*
X56760Y172041D01*
X56000Y172245D01*
D02*
G37*
G36*
X55000D02*
X54240Y172041D01*
X53496Y171612D01*
X52888Y171004D01*
X52459Y170260D01*
X52255Y169500D01*
X55000D01*
Y172245D01*
D02*
G37*
G36*
X141142Y171500D02*
X138784D01*
X138949Y170885D01*
X139329Y170226D01*
X139867Y169688D01*
X140526Y169307D01*
X141142Y169142D01*
Y171500D01*
D02*
G37*
G36*
X144500D02*
X142142D01*
Y169142D01*
X142757Y169307D01*
X143416Y169688D01*
X143954Y170226D01*
X144335Y170885D01*
X144500Y171500D01*
D02*
G37*
G36*
X348035Y176673D02*
X346965D01*
X345930Y176396D01*
X345003Y175861D01*
X344246Y175103D01*
X343710Y174176D01*
X343433Y173142D01*
Y172071D01*
X343710Y171037D01*
X344246Y170109D01*
X345003Y169352D01*
X345930Y168816D01*
X346965Y168539D01*
X348035D01*
X349070Y168816D01*
X349997Y169352D01*
X350754Y170109D01*
X351290Y171037D01*
X351567Y172071D01*
Y173142D01*
X351290Y174176D01*
X350754Y175103D01*
X349997Y175861D01*
X349070Y176396D01*
X348035Y176673D01*
D02*
G37*
G36*
X271158Y170643D02*
Y168000D01*
X273800D01*
X273607Y168722D01*
X273190Y169444D01*
X272601Y170033D01*
X271879Y170450D01*
X271158Y170643D01*
D02*
G37*
G36*
X270158D02*
X269436Y170450D01*
X268714Y170033D01*
X268125Y169444D01*
X267708Y168722D01*
X267514Y168000D01*
X270158D01*
Y170643D01*
D02*
G37*
G36*
X58745Y168500D02*
X56000D01*
Y165755D01*
X56760Y165959D01*
X57504Y166388D01*
X58112Y166996D01*
X58541Y167740D01*
X58745Y168500D01*
D02*
G37*
G36*
X55000D02*
X52255D01*
X52459Y167740D01*
X52888Y166996D01*
X53496Y166388D01*
X54240Y165959D01*
X55000Y165755D01*
Y168500D01*
D02*
G37*
G36*
X273800Y167000D02*
X271158D01*
Y164357D01*
X271879Y164550D01*
X272601Y164967D01*
X273190Y165556D01*
X273607Y166278D01*
X273800Y167000D01*
D02*
G37*
G36*
X270158D02*
X267514D01*
X267708Y166278D01*
X268125Y165556D01*
X268714Y164967D01*
X269436Y164550D01*
X270158Y164357D01*
Y167000D01*
D02*
G37*
G36*
X333595Y173020D02*
X332405D01*
X331256Y172712D01*
X330225Y172117D01*
X329383Y171275D01*
X328788Y170245D01*
X328480Y169095D01*
Y167905D01*
X328788Y166755D01*
X329383Y165725D01*
X330225Y164883D01*
X331256Y164288D01*
X332405Y163980D01*
X333595D01*
X334745Y164288D01*
X335775Y164883D01*
X336617Y165725D01*
X337212Y166755D01*
X337520Y167905D01*
Y169095D01*
X337212Y170245D01*
X336617Y171275D01*
X335775Y172117D01*
X334745Y172712D01*
X333595Y173020D01*
D02*
G37*
G36*
X302493D02*
X301303D01*
X300153Y172712D01*
X299123Y172117D01*
X298281Y171275D01*
X297686Y170245D01*
X297378Y169095D01*
Y167905D01*
X297686Y166755D01*
X298281Y165725D01*
X299123Y164883D01*
X300153Y164288D01*
X301303Y163980D01*
X302493D01*
X303642Y164288D01*
X304673Y164883D01*
X305514Y165725D01*
X306109Y166755D01*
X306417Y167905D01*
Y169095D01*
X306109Y170245D01*
X305514Y171275D01*
X304673Y172117D01*
X303642Y172712D01*
X302493Y173020D01*
D02*
G37*
G36*
X17077Y169468D02*
X15923D01*
X14809Y169170D01*
X13810Y168593D01*
X12994Y167777D01*
X12417Y166778D01*
X12118Y165664D01*
Y164510D01*
X12417Y163395D01*
X12994Y162396D01*
X13810Y161580D01*
X14809Y161003D01*
X15923Y160705D01*
X17077D01*
X18191Y161003D01*
X19191Y161580D01*
X20006Y162396D01*
X20583Y163395D01*
X20882Y164510D01*
Y165664D01*
X20583Y166778D01*
X20006Y167777D01*
X19191Y168593D01*
X18191Y169170D01*
X17077Y169468D01*
D02*
G37*
G36*
X56061Y163264D02*
X54939D01*
X53854Y162973D01*
X52882Y162412D01*
X52088Y161618D01*
X51527Y160646D01*
X51236Y159561D01*
Y158439D01*
X51527Y157354D01*
X52088Y156382D01*
X52882Y155588D01*
X53854Y155027D01*
X54939Y154736D01*
X56061D01*
X57146Y155027D01*
X58118Y155588D01*
X58912Y156382D01*
X59473Y157354D01*
X59764Y158439D01*
Y159561D01*
X59473Y160646D01*
X58912Y161618D01*
X58118Y162412D01*
X57146Y162973D01*
X56061Y163264D01*
D02*
G37*
G36*
X370548Y170323D02*
X369452D01*
X368392Y170039D01*
X367442Y169491D01*
X366667Y168715D01*
X366119Y167765D01*
X365835Y166706D01*
Y165609D01*
X366119Y164550D01*
X366667Y163600D01*
X367442Y162824D01*
X367937Y162539D01*
Y161961D01*
X367442Y161676D01*
X366667Y160900D01*
X366119Y159950D01*
X365835Y158891D01*
Y157794D01*
X366119Y156735D01*
X366667Y155785D01*
X367442Y155009D01*
X368392Y154461D01*
X369452Y154177D01*
X370548D01*
X371608Y154461D01*
X372558Y155009D01*
X373333Y155785D01*
X373882Y156735D01*
X374165Y157794D01*
Y158891D01*
X373882Y159950D01*
X373333Y160900D01*
X372558Y161676D01*
X372063Y161961D01*
Y162539D01*
X372558Y162824D01*
X373333Y163600D01*
X373882Y164550D01*
X374165Y165609D01*
Y166706D01*
X373882Y167765D01*
X373333Y168715D01*
X372558Y169491D01*
X371608Y170039D01*
X370548Y170323D01*
D02*
G37*
G36*
X333595Y163020D02*
X332405D01*
X331256Y162712D01*
X330225Y162117D01*
X329383Y161275D01*
X328788Y160245D01*
X328480Y159095D01*
Y157905D01*
X328788Y156755D01*
X329383Y155725D01*
X330225Y154883D01*
X331256Y154288D01*
X332405Y153980D01*
X333595D01*
X334745Y154288D01*
X335775Y154883D01*
X336617Y155725D01*
X337212Y156755D01*
X337520Y157905D01*
Y159095D01*
X337212Y160245D01*
X336617Y161275D01*
X335775Y162117D01*
X334745Y162712D01*
X333595Y163020D01*
D02*
G37*
G36*
X348035Y157461D02*
X346965D01*
X345930Y157184D01*
X345003Y156648D01*
X344246Y155891D01*
X343710Y154964D01*
X343433Y153929D01*
Y152858D01*
X343710Y151824D01*
X344246Y150897D01*
X345003Y150139D01*
X345930Y149604D01*
X346965Y149327D01*
X348035D01*
X349070Y149604D01*
X349997Y150139D01*
X350754Y150897D01*
X351290Y151824D01*
X351567Y152858D01*
Y153929D01*
X351290Y154964D01*
X350754Y155891D01*
X349997Y156648D01*
X349070Y157184D01*
X348035Y157461D01*
D02*
G37*
G36*
X333500Y152010D02*
Y149000D01*
X336510D01*
X336280Y149858D01*
X335816Y150661D01*
X335161Y151316D01*
X334359Y151780D01*
X333500Y152010D01*
D02*
G37*
G36*
X332500D02*
X331641Y151780D01*
X330839Y151316D01*
X330184Y150661D01*
X329720Y149858D01*
X329490Y149000D01*
X332500D01*
Y152010D01*
D02*
G37*
G36*
X17077Y155295D02*
X15923D01*
X14809Y154997D01*
X13810Y154420D01*
X12994Y153604D01*
X12417Y152605D01*
X12118Y151490D01*
Y150337D01*
X12417Y149222D01*
X12994Y148223D01*
X13810Y147407D01*
X14809Y146830D01*
X15923Y146531D01*
X17077D01*
X18191Y146830D01*
X19191Y147407D01*
X20006Y148223D01*
X20583Y149222D01*
X20882Y150337D01*
Y151490D01*
X20583Y152605D01*
X20006Y153604D01*
X19191Y154420D01*
X18191Y154997D01*
X17077Y155295D01*
D02*
G37*
G36*
X336510Y148000D02*
X333500D01*
Y144990D01*
X334359Y145220D01*
X335161Y145684D01*
X335816Y146339D01*
X336280Y147142D01*
X336510Y148000D01*
D02*
G37*
G36*
X290891Y171665D02*
X289794D01*
X288735Y171381D01*
X287785Y170833D01*
X287009Y170058D01*
X286461Y169108D01*
X286177Y168048D01*
Y166952D01*
X286461Y165892D01*
X286812Y165284D01*
Y163157D01*
X286933Y162244D01*
X287285Y161392D01*
X287846Y160661D01*
X292504Y156004D01*
X293235Y155443D01*
X294086Y155090D01*
X295000Y154970D01*
X299036D01*
X299123Y154883D01*
X300153Y154288D01*
X301303Y153980D01*
X301425D01*
X301924Y153482D01*
X301732Y153020D01*
X301303D01*
X300153Y152712D01*
X299123Y152117D01*
X298281Y151275D01*
X298003Y150793D01*
X296362D01*
X295644Y150699D01*
X294975Y150422D01*
X294401Y149981D01*
X290585Y146165D01*
X289794D01*
X288735Y145881D01*
X287785Y145333D01*
X287009Y144558D01*
X286461Y143608D01*
X286177Y142548D01*
Y141452D01*
X286461Y140392D01*
X287009Y139442D01*
X287785Y138667D01*
X288735Y138119D01*
X289794Y137835D01*
X290891D01*
X291950Y138119D01*
X292900Y138667D01*
X293676Y139442D01*
X294224Y140392D01*
X294508Y141452D01*
Y142243D01*
X297511Y145246D01*
X298760D01*
X299123Y144883D01*
X300153Y144288D01*
X301303Y143980D01*
X302493D01*
X303642Y144288D01*
X304673Y144883D01*
X305514Y145725D01*
X306109Y146756D01*
X306417Y147905D01*
Y149095D01*
X306109Y150244D01*
X305979Y150470D01*
X306268Y150970D01*
X315538D01*
X328480Y138027D01*
Y137905D01*
X328788Y136756D01*
X329383Y135725D01*
X330225Y134883D01*
X331256Y134288D01*
X332405Y133980D01*
X332527D01*
X333026Y133482D01*
X332835Y133020D01*
X332405D01*
X331256Y132712D01*
X330225Y132117D01*
X329383Y131275D01*
X328788Y130245D01*
X328480Y129095D01*
Y127905D01*
X328788Y126755D01*
X329383Y125725D01*
X330225Y124883D01*
X331256Y124288D01*
X332405Y123980D01*
X333595D01*
X334745Y124288D01*
X335775Y124883D01*
X336617Y125725D01*
X337212Y126755D01*
X337520Y127905D01*
Y128335D01*
X337982Y128526D01*
X359504Y107004D01*
X360235Y106443D01*
X361086Y106090D01*
X362000Y105970D01*
X370038D01*
X370996Y105417D01*
X372111Y105118D01*
X373264D01*
X374379Y105417D01*
X375378Y105994D01*
X376194Y106809D01*
X376771Y107809D01*
X377069Y108923D01*
Y110077D01*
X376771Y111191D01*
X376194Y112190D01*
X375378Y113006D01*
X374379Y113583D01*
X373264Y113882D01*
X372111D01*
X370996Y113583D01*
X370038Y113030D01*
X363462D01*
X337520Y138973D01*
Y139095D01*
X337212Y140244D01*
X336617Y141275D01*
X335775Y142117D01*
X334745Y142712D01*
X333595Y143020D01*
X333473D01*
X331844Y144648D01*
X332103Y145097D01*
X332500Y144990D01*
Y148000D01*
X329490D01*
X329596Y147603D01*
X329148Y147344D01*
X319496Y156996D01*
X318765Y157557D01*
X317914Y157910D01*
X317000Y158030D01*
X307360D01*
X306417Y158973D01*
Y159095D01*
X306109Y160245D01*
X305514Y161275D01*
X304673Y162117D01*
X303642Y162712D01*
X302493Y163020D01*
X301303D01*
X300153Y162712D01*
X299123Y162117D01*
X299036Y162030D01*
X296462D01*
X293873Y164620D01*
Y165284D01*
X294224Y165892D01*
X294508Y166952D01*
Y168048D01*
X294224Y169108D01*
X293676Y170058D01*
X292900Y170833D01*
X291950Y171381D01*
X290891Y171665D01*
D02*
G37*
G36*
X56061Y153264D02*
X54939D01*
X53854Y152973D01*
X52882Y152412D01*
X52088Y151618D01*
X51527Y150646D01*
X51236Y149561D01*
Y148439D01*
X51527Y147354D01*
X52088Y146382D01*
X52882Y145588D01*
X53854Y145027D01*
X54939Y144736D01*
X56061D01*
X57146Y145027D01*
X58118Y145588D01*
X58912Y146382D01*
X59473Y147354D01*
X59764Y148439D01*
Y149561D01*
X59473Y150646D01*
X58912Y151618D01*
X58118Y152412D01*
X57146Y152973D01*
X56061Y153264D01*
D02*
G37*
G36*
X87643Y171937D02*
X84500D01*
X81357D01*
X81550Y171215D01*
X81967Y170493D01*
X82556Y169904D01*
X82960Y169671D01*
X82924Y169115D01*
X82478Y168930D01*
X82215Y168728D01*
X80335D01*
Y166366D01*
X80129Y165868D01*
X79957Y164563D01*
X80129Y163258D01*
X80335Y162760D01*
Y160398D01*
X82215D01*
X82478Y160196D01*
X83695Y159692D01*
X85000Y159520D01*
X85000Y159520D01*
X115348D01*
X131427Y143441D01*
X131206Y142992D01*
X131000Y143019D01*
X77476D01*
X76171Y142848D01*
X74955Y142344D01*
X73910Y141542D01*
X61911Y129543D01*
X51000D01*
X49695Y129371D01*
X48478Y128867D01*
X47434Y128066D01*
X46633Y127022D01*
X46129Y125805D01*
X45957Y124500D01*
X46129Y123195D01*
X46633Y121978D01*
X47434Y120934D01*
X48478Y120133D01*
X49695Y119629D01*
X51000Y119457D01*
X64000D01*
X65305Y119629D01*
X66522Y120133D01*
X67566Y120934D01*
X79565Y132933D01*
X131000D01*
X132305Y133105D01*
X133522Y133609D01*
X134566Y134410D01*
X135368Y135455D01*
X135871Y136671D01*
X136043Y137976D01*
X136016Y138182D01*
X136465Y138403D01*
X137957Y136911D01*
Y63712D01*
X138129Y62406D01*
X138633Y61190D01*
X139434Y60146D01*
X154114Y45465D01*
Y35000D01*
X154276Y33774D01*
X154169Y33511D01*
X154011Y33274D01*
X102529D01*
X102322Y33774D01*
X102833Y34285D01*
X103382Y35235D01*
X103665Y36294D01*
Y37391D01*
X103382Y38450D01*
X102833Y39400D01*
X102274Y39959D01*
Y46939D01*
X102179Y47657D01*
X101902Y48326D01*
X101461Y48900D01*
X100887Y49341D01*
X100326Y49573D01*
X99290Y50610D01*
X99424Y51287D01*
Y51807D01*
X99280Y52531D01*
X99424Y53256D01*
Y53776D01*
X99280Y54500D01*
X99381Y55006D01*
X100174D01*
X100735Y54773D01*
X101453Y54679D01*
X110453D01*
X111171Y54773D01*
X111840Y55051D01*
X112414Y55491D01*
X115470Y58547D01*
X121453D01*
Y61337D01*
X121953Y61471D01*
X122537Y60459D01*
X123459Y59537D01*
X124588Y58885D01*
X125848Y58547D01*
X127152D01*
X128412Y58885D01*
X129541Y59537D01*
X130463Y60459D01*
X130768Y60987D01*
X130902Y61005D01*
X131571Y61282D01*
X132146Y61723D01*
X135961Y65539D01*
X136402Y66113D01*
X136679Y66782D01*
X136774Y67500D01*
Y105573D01*
X136679Y106291D01*
X136402Y106960D01*
X135961Y107534D01*
X135100Y108396D01*
X135382Y109447D01*
Y109696D01*
X135447Y110024D01*
Y111149D01*
X135261Y112085D01*
X134730Y112879D01*
X133936Y113410D01*
X133780Y113441D01*
X133691Y113530D01*
X132691Y114107D01*
X131577Y114406D01*
X130423D01*
X129309Y114107D01*
X128310Y113530D01*
X127494Y112714D01*
X126917Y111715D01*
X126618Y110600D01*
Y109447D01*
X126917Y108332D01*
X127494Y107333D01*
X128310Y106517D01*
X129309Y105940D01*
X129857Y105793D01*
X131226Y104424D01*
Y92219D01*
X130726Y92085D01*
X130463Y92541D01*
X129541Y93463D01*
X129274Y93617D01*
Y97024D01*
X129179Y97742D01*
X128902Y98410D01*
X128461Y98985D01*
X117882Y109564D01*
Y110600D01*
X117583Y111715D01*
X117006Y112714D01*
X116191Y113530D01*
X115191Y114107D01*
X114077Y114406D01*
X112923D01*
X111809Y114107D01*
X110810Y113530D01*
X109994Y112714D01*
X109417Y111715D01*
X109118Y110600D01*
Y109447D01*
X109417Y108332D01*
X109994Y107333D01*
X110810Y106517D01*
X111809Y105940D01*
X112923Y105642D01*
X113959D01*
X123726Y95875D01*
Y93617D01*
X123459Y93463D01*
X122537Y92541D01*
X121953Y91529D01*
X121453Y91663D01*
Y94453D01*
X111547D01*
Y84547D01*
X113726D01*
Y77149D01*
X98446Y61868D01*
X97708D01*
X97120Y61985D01*
X95985D01*
Y63120D01*
X95810Y64002D01*
X95310Y64749D01*
X95007Y64952D01*
X94993Y65097D01*
X95028Y65539D01*
X95402Y66027D01*
X95679Y66695D01*
X95774Y67413D01*
Y100469D01*
X95679Y101187D01*
X95402Y101856D01*
X94961Y102430D01*
X84430Y112961D01*
X83855Y113402D01*
X83187Y113679D01*
X82469Y113774D01*
X53976D01*
X53259Y113679D01*
X52589Y113402D01*
X52015Y112961D01*
X33459Y94406D01*
X32423D01*
X31309Y94107D01*
X30310Y93530D01*
X29494Y92714D01*
X28917Y91715D01*
X28749Y91090D01*
X28192Y90940D01*
X16606Y102526D01*
Y122835D01*
X18937D01*
Y126000D01*
Y129165D01*
X16272D01*
Y128898D01*
X15772Y128728D01*
X15129Y129566D01*
X14085Y130368D01*
X12868Y130871D01*
X11563Y131043D01*
X10258Y130871D01*
X9041Y130368D01*
X7997Y129566D01*
X7196Y128522D01*
X6692Y127305D01*
X6520Y126000D01*
Y100437D01*
X6692Y99132D01*
X7196Y97915D01*
X7997Y96871D01*
X15958Y88910D01*
X15699Y88462D01*
X14704Y88728D01*
X14476D01*
Y83701D01*
X19504D01*
Y83929D01*
X19237Y84923D01*
X19686Y85182D01*
X26457Y78411D01*
Y69651D01*
X25146Y68340D01*
X24662Y67709D01*
X24163Y67677D01*
X23644Y68195D01*
X22569Y68816D01*
X21369Y69138D01*
X20127D01*
X18927Y68816D01*
X17852Y68195D01*
X16974Y67317D01*
X16353Y66242D01*
X16032Y65042D01*
Y63800D01*
X16353Y62601D01*
X16974Y61525D01*
X17852Y60647D01*
X18927Y60026D01*
X19925Y59759D01*
Y59241D01*
X18927Y58974D01*
X17852Y58353D01*
X16974Y57475D01*
X16353Y56399D01*
X16032Y55200D01*
Y53958D01*
X16353Y52758D01*
X16974Y51683D01*
X17852Y50805D01*
X18927Y50184D01*
X20127Y49862D01*
X21369D01*
X22569Y50184D01*
X23644Y50805D01*
X24522Y51683D01*
X24974Y52465D01*
X25551D01*
X25648Y52297D01*
X26340Y51605D01*
X27187Y51116D01*
X28122Y50865D01*
Y54579D01*
X28622D01*
Y55079D01*
X32336D01*
X32182Y55653D01*
X32560Y56153D01*
X33600D01*
X33789Y56191D01*
X34737Y56284D01*
X35830Y56616D01*
X36838Y57154D01*
X37721Y57879D01*
X37887Y58082D01*
X37967Y58135D01*
X37994Y58148D01*
X38535Y58068D01*
X38593Y57928D01*
X39219Y57114D01*
X40033Y56488D01*
X40982Y56095D01*
X42000Y55961D01*
X43018Y56095D01*
X43967Y56488D01*
X44782Y57114D01*
X45407Y57928D01*
X45630Y58469D01*
X50964D01*
X51064Y57454D01*
X51515Y55968D01*
X52247Y54599D01*
X53232Y53398D01*
X54433Y52413D01*
X55803Y51681D01*
X57289Y51230D01*
X58746Y51086D01*
X58834Y51069D01*
X77428D01*
X77721Y50569D01*
X77576Y49839D01*
Y49319D01*
X77751Y48437D01*
X78251Y47690D01*
X78998Y47190D01*
X79880Y47015D01*
X81015D01*
Y45880D01*
X81190Y44998D01*
X81690Y44251D01*
X82044Y44014D01*
X82093Y43516D01*
X78194Y39616D01*
X76117D01*
X75558Y40176D01*
X74608Y40724D01*
X73548Y41008D01*
X72452D01*
X71392Y40724D01*
X70442Y40176D01*
X69667Y39400D01*
X69118Y38450D01*
X68835Y37391D01*
Y36294D01*
X69118Y35235D01*
X69667Y34285D01*
X70442Y33509D01*
X71392Y32961D01*
X72452Y32677D01*
X73548D01*
X74608Y32961D01*
X75558Y33509D01*
X76117Y34069D01*
X79343D01*
X80060Y34163D01*
X80729Y34440D01*
X81304Y34881D01*
X86575Y40153D01*
X87037Y39961D01*
Y33294D01*
X86805Y32734D01*
X86711Y32016D01*
X86805Y31298D01*
X87082Y30629D01*
X87523Y30054D01*
X92639Y24939D01*
X93213Y24498D01*
X93882Y24221D01*
X94600Y24126D01*
X163153D01*
X163871Y24221D01*
X164540Y24498D01*
X165114Y24939D01*
X175177Y35002D01*
X175677Y34795D01*
Y34583D01*
X175893Y33778D01*
X176310Y33056D01*
X176899Y32467D01*
X177621Y32050D01*
X178342Y31857D01*
Y35000D01*
X178842D01*
Y35500D01*
X181986D01*
X181792Y36222D01*
X181375Y36944D01*
X180786Y37533D01*
X180064Y37950D01*
X179259Y38165D01*
X179048D01*
X178841Y38665D01*
X182352Y42176D01*
X226450D01*
X227168Y42271D01*
X227837Y42548D01*
X228411Y42989D01*
X228493Y43071D01*
X229087Y42958D01*
X229517Y42213D01*
X230333Y41398D01*
X231332Y40821D01*
X232447Y40522D01*
X233600D01*
X234715Y40821D01*
X235714Y41398D01*
X236530Y42213D01*
X237107Y43213D01*
X237405Y44327D01*
Y45481D01*
X237107Y46595D01*
X236530Y47594D01*
X235714Y48410D01*
X234970Y48840D01*
X234857Y49434D01*
X239649Y54226D01*
X306000D01*
X306718Y54321D01*
X307387Y54598D01*
X307961Y55039D01*
X323461Y70539D01*
X323902Y71113D01*
X324179Y71782D01*
X324274Y72500D01*
Y81851D01*
X328149Y85726D01*
X329382D01*
X329383Y85725D01*
X330225Y84883D01*
X331256Y84288D01*
X332405Y83980D01*
X333595D01*
X334745Y84288D01*
X335775Y84883D01*
X336617Y85725D01*
X337212Y86756D01*
X337520Y87905D01*
Y89095D01*
X337212Y90245D01*
X336617Y91275D01*
X335775Y92117D01*
X334745Y92712D01*
X333595Y93020D01*
X332405D01*
X331256Y92712D01*
X330225Y92117D01*
X329383Y91275D01*
X329382Y91274D01*
X327331D01*
Y91281D01*
X326405Y91159D01*
X325541Y90801D01*
X324806Y90237D01*
X324806Y90228D01*
X320111Y85534D01*
X319757Y85186D01*
X319475Y84819D01*
X319199Y84459D01*
X318841Y83595D01*
X318782Y83145D01*
X318722Y82687D01*
X318722Y82687D01*
X318726Y82189D01*
Y73649D01*
X316733Y71655D01*
X316259Y71889D01*
X316274Y72000D01*
Y91851D01*
X320149Y95726D01*
X329382D01*
X329383Y95725D01*
X330225Y94883D01*
X331256Y94288D01*
X332405Y93980D01*
X333595D01*
X334745Y94288D01*
X335775Y94883D01*
X336617Y95725D01*
X337212Y96755D01*
X337520Y97905D01*
Y99095D01*
X337212Y100244D01*
X336617Y101275D01*
X335775Y102117D01*
X334745Y102712D01*
X333595Y103020D01*
X332405D01*
X331256Y102712D01*
X330225Y102117D01*
X329383Y101275D01*
X329382Y101274D01*
X319000D01*
X318282Y101179D01*
X317613Y100902D01*
X317039Y100461D01*
X311539Y94961D01*
X311098Y94387D01*
X310821Y93718D01*
X310726Y93000D01*
Y73149D01*
X302351Y64774D01*
X240247D01*
X239529Y64679D01*
X238860Y64402D01*
X238286Y63961D01*
X232760Y58435D01*
X232260Y58642D01*
Y59156D01*
X231969Y60240D01*
X231408Y61212D01*
X230614Y62006D01*
X229642Y62568D01*
X228557Y62858D01*
X227435D01*
X226350Y62568D01*
X225378Y62006D01*
X224584Y61212D01*
X224023Y60240D01*
X223732Y59156D01*
Y58033D01*
X224023Y56949D01*
X224584Y55976D01*
X225378Y55183D01*
X226350Y54621D01*
X227435Y54331D01*
X227948D01*
X228155Y53831D01*
X227098Y52774D01*
X183000D01*
X182282Y52679D01*
X181613Y52402D01*
X181039Y51961D01*
X164663Y35585D01*
X164201Y35776D01*
Y47554D01*
X164029Y48860D01*
X163525Y50076D01*
X162724Y51120D01*
X157616Y56228D01*
X157682Y56723D01*
X158191Y57017D01*
X159006Y57833D01*
X159583Y58832D01*
X159882Y59947D01*
Y61101D01*
X159583Y62215D01*
X159006Y63214D01*
X158191Y64030D01*
X157191Y64607D01*
X156077Y64906D01*
X154923D01*
X153809Y64607D01*
X152810Y64030D01*
X151994Y63214D01*
X151700Y62705D01*
X151204Y62640D01*
X148043Y65801D01*
Y139000D01*
X148043Y139000D01*
X147871Y140305D01*
X147368Y141522D01*
X146566Y142566D01*
X121003Y168129D01*
X119959Y168930D01*
X118742Y169434D01*
X117437Y169606D01*
X86853D01*
X86646Y170106D01*
X87033Y170493D01*
X87450Y171215D01*
X87643Y171937D01*
D02*
G37*
G36*
X271158Y145143D02*
Y142500D01*
X273800D01*
X273607Y143222D01*
X273190Y143944D01*
X272601Y144533D01*
X271879Y144950D01*
X271158Y145143D01*
D02*
G37*
G36*
X270158D02*
X269436Y144950D01*
X268714Y144533D01*
X268125Y143944D01*
X267708Y143222D01*
X267514Y142500D01*
X270158D01*
Y145143D01*
D02*
G37*
G36*
X58764Y142264D02*
X56000D01*
Y139500D01*
X58764D01*
Y142264D01*
D02*
G37*
G36*
X55000D02*
X52236D01*
Y139500D01*
X55000D01*
Y142264D01*
D02*
G37*
G36*
X370500Y141800D02*
Y139157D01*
X373143D01*
X372950Y139879D01*
X372533Y140601D01*
X371944Y141190D01*
X371222Y141607D01*
X370500Y141800D01*
D02*
G37*
G36*
X369500D02*
X368778Y141607D01*
X368056Y141190D01*
X367467Y140601D01*
X367050Y139879D01*
X366857Y139157D01*
X369500D01*
Y141800D01*
D02*
G37*
G36*
X302398Y142010D02*
Y139000D01*
X305408D01*
X305177Y139858D01*
X304714Y140661D01*
X304059Y141316D01*
X303256Y141780D01*
X302398Y142010D01*
D02*
G37*
G36*
X301398D02*
X300539Y141780D01*
X299736Y141316D01*
X299081Y140661D01*
X298618Y139858D01*
X298388Y139000D01*
X301398D01*
Y142010D01*
D02*
G37*
G36*
X273800Y141500D02*
X271158D01*
Y138857D01*
X271879Y139050D01*
X272601Y139467D01*
X273190Y140056D01*
X273607Y140778D01*
X273800Y141500D01*
D02*
G37*
G36*
X270158D02*
X267514D01*
X267708Y140778D01*
X268125Y140056D01*
X268714Y139467D01*
X269436Y139050D01*
X270158Y138857D01*
Y141500D01*
D02*
G37*
G36*
X58764Y138500D02*
X56000D01*
Y135736D01*
X58764D01*
Y138500D01*
D02*
G37*
G36*
X55000D02*
X52236D01*
Y135736D01*
X55000D01*
Y138500D01*
D02*
G37*
G36*
X373143Y138157D02*
X370500D01*
Y135514D01*
X371222Y135708D01*
X371944Y136125D01*
X372533Y136714D01*
X372950Y137436D01*
X373143Y138157D01*
D02*
G37*
G36*
X369500D02*
X366857D01*
X367050Y137436D01*
X367467Y136714D01*
X368056Y136125D01*
X368778Y135708D01*
X369500Y135514D01*
Y138157D01*
D02*
G37*
G36*
X305408Y138000D02*
X302398D01*
Y134990D01*
X303256Y135220D01*
X304059Y135684D01*
X304714Y136339D01*
X305177Y137142D01*
X305408Y138000D01*
D02*
G37*
G36*
X301398D02*
X298388D01*
X298618Y137142D01*
X299081Y136339D01*
X299736Y135684D01*
X300539Y135220D01*
X301398Y134990D01*
Y138000D01*
D02*
G37*
G36*
X92500Y224043D02*
X84500D01*
X83195Y223871D01*
X81978Y223368D01*
X80934Y222566D01*
X80133Y221522D01*
X79629Y220305D01*
X79457Y219000D01*
X79629Y217695D01*
X80133Y216478D01*
X80934Y215434D01*
X81771Y214791D01*
X81602Y214291D01*
X81335D01*
Y211626D01*
X84500D01*
X87665D01*
Y213957D01*
X90411D01*
X110849Y193519D01*
Y181107D01*
X111021Y179802D01*
X111525Y178586D01*
X112326Y177541D01*
X177457Y112411D01*
Y111568D01*
X176957Y111434D01*
X176506Y112214D01*
X175690Y113030D01*
X174691Y113607D01*
X173577Y113906D01*
X172423D01*
X171309Y113607D01*
X170309Y113030D01*
X169494Y112214D01*
X168917Y111215D01*
X168618Y110100D01*
Y108947D01*
X168917Y107832D01*
X169494Y106833D01*
X170309Y106017D01*
X171309Y105440D01*
X172423Y105142D01*
X173577D01*
X174691Y105440D01*
X175690Y106017D01*
X176506Y106833D01*
X176957Y107613D01*
X177457Y107479D01*
Y105000D01*
X177629Y103695D01*
X178132Y102478D01*
X178934Y101434D01*
X186934Y93434D01*
X187067Y93332D01*
X186907Y92858D01*
X180740D01*
Y84331D01*
X189268D01*
Y91740D01*
X189644Y92070D01*
X190500Y91957D01*
X212500D01*
X213805Y92129D01*
X215022Y92633D01*
X216066Y93434D01*
X221066Y98434D01*
X221867Y99478D01*
X222371Y100695D01*
X222543Y102000D01*
Y105157D01*
X222371Y106463D01*
X221867Y107679D01*
X221066Y108723D01*
X220022Y109525D01*
X218805Y110029D01*
X217500Y110201D01*
X216195Y110029D01*
X214978Y109525D01*
X213934Y108723D01*
X213133Y107679D01*
X212629Y106463D01*
X212457Y105157D01*
Y104089D01*
X210411Y102043D01*
X192589D01*
X187543Y107089D01*
Y114500D01*
X187371Y115805D01*
X186867Y117022D01*
X186066Y118066D01*
X171238Y132895D01*
X171496Y133343D01*
X172423Y133095D01*
X173577D01*
X174691Y133393D01*
X175690Y133970D01*
X176506Y134786D01*
X177083Y135785D01*
X177382Y136899D01*
Y138053D01*
X177083Y139168D01*
X176506Y140167D01*
X175690Y140983D01*
X174691Y141560D01*
X173577Y141858D01*
X172423D01*
X171309Y141560D01*
X170309Y140983D01*
X169494Y140167D01*
X168917Y139168D01*
X168618Y138053D01*
Y136899D01*
X168866Y135973D01*
X168418Y135714D01*
X120936Y183196D01*
Y195607D01*
X120764Y196913D01*
X120260Y198129D01*
X119458Y199174D01*
X96066Y222566D01*
X95022Y223368D01*
X93805Y223871D01*
X92500Y224043D01*
D02*
G37*
G36*
X22602Y129165D02*
X19937D01*
Y126500D01*
X22602D01*
Y129165D01*
D02*
G37*
G36*
X218000Y127986D02*
Y125343D01*
X220643D01*
X220450Y126064D01*
X220033Y126786D01*
X219444Y127375D01*
X218722Y127792D01*
X218000Y127986D01*
D02*
G37*
G36*
X217000D02*
X216278Y127792D01*
X215556Y127375D01*
X214967Y126786D01*
X214550Y126064D01*
X214357Y125343D01*
X217000D01*
Y127986D01*
D02*
G37*
G36*
X156390Y132138D02*
X148610D01*
Y124358D01*
X156390D01*
Y132138D01*
D02*
G37*
G36*
X302493Y133020D02*
X301303D01*
X300153Y132712D01*
X299123Y132117D01*
X298281Y131275D01*
X297686Y130245D01*
X297378Y129095D01*
Y127905D01*
X297686Y126755D01*
X298281Y125725D01*
X299123Y124883D01*
X300153Y124288D01*
X301303Y123980D01*
X302493D01*
X303642Y124288D01*
X304673Y124883D01*
X305514Y125725D01*
X306109Y126755D01*
X306417Y127905D01*
Y129095D01*
X306109Y130245D01*
X305514Y131275D01*
X304673Y132117D01*
X303642Y132712D01*
X302493Y133020D01*
D02*
G37*
G36*
X22602Y125500D02*
X19937D01*
Y122835D01*
X22602D01*
Y125500D01*
D02*
G37*
G36*
X220643Y124343D02*
X218000D01*
Y121700D01*
X218722Y121893D01*
X219444Y122310D01*
X220033Y122899D01*
X220450Y123621D01*
X220643Y124343D01*
D02*
G37*
G36*
X217000D02*
X214357D01*
X214550Y123621D01*
X214967Y122899D01*
X215556Y122310D01*
X216278Y121893D01*
X217000Y121700D01*
Y124343D01*
D02*
G37*
G36*
X333595Y123020D02*
X332405D01*
X331256Y122712D01*
X330225Y122117D01*
X329383Y121275D01*
X328788Y120245D01*
X328480Y119095D01*
Y117905D01*
X328788Y116755D01*
X329383Y115725D01*
X330225Y114883D01*
X331256Y114288D01*
X332405Y113980D01*
X333595D01*
X334745Y114288D01*
X335775Y114883D01*
X336617Y115725D01*
X337212Y116755D01*
X337520Y117905D01*
Y119095D01*
X337212Y120245D01*
X336617Y121275D01*
X335775Y122117D01*
X334745Y122712D01*
X333595Y123020D01*
D02*
G37*
G36*
X33577Y122358D02*
X32423D01*
X31309Y122060D01*
X30310Y121483D01*
X29494Y120667D01*
X28917Y119668D01*
X28618Y118553D01*
Y117400D01*
X28917Y116285D01*
X29494Y115286D01*
X30310Y114470D01*
X31309Y113893D01*
X32423Y113594D01*
X33577D01*
X34691Y113893D01*
X35691Y114470D01*
X36506Y115286D01*
X37083Y116285D01*
X37382Y117400D01*
Y118553D01*
X37083Y119668D01*
X36506Y120667D01*
X35691Y121483D01*
X34691Y122060D01*
X33577Y122358D01*
D02*
G37*
G36*
X241500Y116241D02*
Y113496D01*
X244245D01*
X244041Y114256D01*
X243612Y115000D01*
X243004Y115608D01*
X242260Y116037D01*
X241500Y116241D01*
D02*
G37*
G36*
X240500D02*
X239740Y116037D01*
X238996Y115608D01*
X238388Y115000D01*
X237959Y114256D01*
X237755Y113496D01*
X240500D01*
Y116241D01*
D02*
G37*
G36*
X194000Y112891D02*
Y110024D01*
X196867D01*
X196651Y110829D01*
X196206Y111600D01*
X195577Y112230D01*
X194805Y112675D01*
X194000Y112891D01*
D02*
G37*
G36*
X193000D02*
X192195Y112675D01*
X191423Y112230D01*
X190794Y111600D01*
X190349Y110829D01*
X190133Y110024D01*
X193000D01*
Y112891D01*
D02*
G37*
G36*
X244245Y112496D02*
X241500D01*
Y109751D01*
X242260Y109955D01*
X243004Y110384D01*
X243612Y110992D01*
X244041Y111736D01*
X244245Y112496D01*
D02*
G37*
G36*
X240500D02*
X237755D01*
X237959Y111736D01*
X238388Y110992D01*
X238996Y110384D01*
X239740Y109955D01*
X240500Y109751D01*
Y112496D01*
D02*
G37*
G36*
X275264Y117260D02*
X266736D01*
Y108732D01*
X275264D01*
Y117260D01*
D02*
G37*
G36*
X261561D02*
X260439D01*
X259354Y116969D01*
X258382Y116408D01*
X257588Y115614D01*
X257027Y114642D01*
X256736Y113557D01*
Y112435D01*
X257027Y111350D01*
X257588Y110378D01*
X258382Y109584D01*
X259354Y109023D01*
X260439Y108732D01*
X261561D01*
X262646Y109023D01*
X263618Y109584D01*
X264412Y110378D01*
X264973Y111350D01*
X265264Y112435D01*
Y113557D01*
X264973Y114642D01*
X264412Y115614D01*
X263618Y116408D01*
X262646Y116969D01*
X261561Y117260D01*
D02*
G37*
G36*
X251561D02*
X250439D01*
X249354Y116969D01*
X248382Y116408D01*
X247588Y115614D01*
X247027Y114642D01*
X246736Y113557D01*
Y112435D01*
X247027Y111350D01*
X247588Y110378D01*
X248382Y109584D01*
X249354Y109023D01*
X250439Y108732D01*
X251561D01*
X252646Y109023D01*
X253618Y109584D01*
X254412Y110378D01*
X254973Y111350D01*
X255264Y112435D01*
Y113557D01*
X254973Y114642D01*
X254412Y115614D01*
X253618Y116408D01*
X252646Y116969D01*
X251561Y117260D01*
D02*
G37*
G36*
X153012Y114421D02*
X151988D01*
X150999Y114156D01*
X150112Y113644D01*
X149387Y112920D01*
X148875Y112033D01*
X148610Y111044D01*
Y110019D01*
X148875Y109030D01*
X149387Y108143D01*
X150112Y107419D01*
X150999Y106907D01*
X151988Y106642D01*
X153012D01*
X154001Y106907D01*
X154888Y107419D01*
X155613Y108143D01*
X156125Y109030D01*
X156390Y110019D01*
Y111044D01*
X156125Y112033D01*
X155613Y112920D01*
X154888Y113644D01*
X154001Y114156D01*
X153012Y114421D01*
D02*
G37*
G36*
X196867Y109024D02*
X194000D01*
Y106156D01*
X194805Y106372D01*
X195577Y106817D01*
X196206Y107447D01*
X196651Y108218D01*
X196867Y109024D01*
D02*
G37*
G36*
X193000D02*
X190133D01*
X190349Y108218D01*
X190794Y107447D01*
X191423Y106817D01*
X192195Y106372D01*
X193000Y106156D01*
Y109024D01*
D02*
G37*
G36*
X345311Y113882D02*
X344158D01*
X343043Y113583D01*
X342044Y113006D01*
X341228Y112190D01*
X340651Y111191D01*
X340353Y110077D01*
Y108923D01*
X340651Y107809D01*
X341228Y106809D01*
X342044Y105994D01*
X343043Y105417D01*
X344158Y105118D01*
X345311D01*
X346426Y105417D01*
X347425Y105994D01*
X348241Y106809D01*
X348818Y107809D01*
X349116Y108923D01*
Y110077D01*
X348818Y111191D01*
X348241Y112190D01*
X347425Y113006D01*
X346426Y113583D01*
X345311Y113882D01*
D02*
G37*
G36*
X194077Y141858D02*
X192923D01*
X191809Y141560D01*
X190810Y140983D01*
X189994Y140167D01*
X189417Y139168D01*
X189118Y138053D01*
Y136899D01*
X189417Y135785D01*
X189994Y134786D01*
X190810Y133970D01*
X191809Y133393D01*
X192923Y133095D01*
X194077D01*
X195191Y133393D01*
X196191Y133970D01*
X196923Y134703D01*
X234882D01*
X243454Y126131D01*
X244029Y125690D01*
X244698Y125413D01*
X245416Y125318D01*
X277759D01*
X291539Y111538D01*
X292114Y111097D01*
X292783Y110820D01*
X293501Y110726D01*
X297464D01*
X297702Y110313D01*
X297681Y110226D01*
X297378Y109095D01*
Y107905D01*
X297686Y106755D01*
X298281Y105725D01*
X299123Y104883D01*
X300153Y104288D01*
X301303Y103980D01*
X302493D01*
X303642Y104288D01*
X304673Y104883D01*
X305514Y105725D01*
X306109Y106755D01*
X306417Y107905D01*
Y109095D01*
X306114Y110226D01*
X306093Y110313D01*
X306331Y110726D01*
X314351D01*
X318538Y106539D01*
X319112Y106098D01*
X319781Y105821D01*
X320499Y105726D01*
X329382D01*
X329383Y105725D01*
X330225Y104883D01*
X331256Y104288D01*
X332405Y103980D01*
X333595D01*
X334745Y104288D01*
X335775Y104883D01*
X336617Y105725D01*
X337212Y106755D01*
X337520Y107905D01*
Y109095D01*
X337212Y110245D01*
X336617Y111275D01*
X335775Y112117D01*
X334745Y112712D01*
X333595Y113020D01*
X332405D01*
X331256Y112712D01*
X330225Y112117D01*
X329383Y111275D01*
X329382Y111274D01*
X321648D01*
X317461Y115461D01*
X316886Y115902D01*
X316217Y116179D01*
X315499Y116273D01*
X306331D01*
X306092Y116687D01*
X306114Y116773D01*
X306417Y117905D01*
Y119095D01*
X306109Y120245D01*
X305514Y121275D01*
X304673Y122117D01*
X303642Y122712D01*
X302493Y123020D01*
X301303D01*
X300153Y122712D01*
X299123Y122117D01*
X298281Y121275D01*
X297686Y120245D01*
X297378Y119095D01*
Y117905D01*
X297681Y116773D01*
X297703Y116687D01*
X297464Y116273D01*
X294650D01*
X280869Y130053D01*
X280295Y130494D01*
X279626Y130771D01*
X278908Y130866D01*
X246565D01*
X237993Y139438D01*
X237418Y139878D01*
X236749Y140156D01*
X236031Y140250D01*
X196923D01*
X196191Y140983D01*
X195191Y141560D01*
X194077Y141858D01*
D02*
G37*
G36*
X287577Y109858D02*
X286423D01*
X285309Y109560D01*
X284310Y108983D01*
X283494Y108167D01*
X282917Y107168D01*
X282618Y106053D01*
Y104900D01*
X282917Y103785D01*
X283494Y102786D01*
X284310Y101970D01*
X285309Y101393D01*
X286423Y101094D01*
X287577D01*
X288691Y101393D01*
X289690Y101970D01*
X290506Y102786D01*
X291083Y103785D01*
X291382Y104900D01*
Y106053D01*
X291083Y107168D01*
X290506Y108167D01*
X289690Y108983D01*
X288691Y109560D01*
X287577Y109858D01*
D02*
G37*
G36*
X302493Y103020D02*
X301303D01*
X300153Y102712D01*
X299123Y102117D01*
X298281Y101275D01*
X297686Y100244D01*
X297378Y99095D01*
Y97905D01*
X297686Y96755D01*
X298281Y95725D01*
X299123Y94883D01*
X300153Y94288D01*
X301303Y93980D01*
X302493D01*
X303642Y94288D01*
X304673Y94883D01*
X305514Y95725D01*
X306109Y96755D01*
X306417Y97905D01*
Y99095D01*
X306109Y100244D01*
X305514Y101275D01*
X304673Y102117D01*
X303642Y102712D01*
X302493Y103020D01*
D02*
G37*
G36*
X363358Y95341D02*
Y92779D01*
X365920D01*
X365735Y93471D01*
X365328Y94175D01*
X364754Y94749D01*
X364050Y95156D01*
X363358Y95341D01*
D02*
G37*
G36*
X362358D02*
X361667Y95156D01*
X360963Y94749D01*
X360388Y94175D01*
X359982Y93471D01*
X359797Y92779D01*
X362358D01*
Y95341D01*
D02*
G37*
G36*
X365920Y91780D02*
X363358D01*
Y89218D01*
X364050Y89403D01*
X364754Y89810D01*
X365328Y90384D01*
X365735Y91088D01*
X365920Y91780D01*
D02*
G37*
G36*
X362358D02*
X359797D01*
X359982Y91088D01*
X360388Y90384D01*
X360963Y89810D01*
X361667Y89403D01*
X362358Y89218D01*
Y91780D01*
D02*
G37*
G36*
X345680Y96366D02*
X344604D01*
X343564Y96088D01*
X342633Y95550D01*
X341872Y94789D01*
X341334Y93857D01*
X341055Y92817D01*
Y91742D01*
X341334Y90702D01*
X341872Y89770D01*
X342633Y89009D01*
X343564Y88471D01*
X344604Y88193D01*
X345680D01*
X346719Y88471D01*
X347651Y89009D01*
X348412Y89770D01*
X348950Y90702D01*
X349228Y91742D01*
Y92817D01*
X348950Y93857D01*
X348412Y94789D01*
X347651Y95550D01*
X346719Y96088D01*
X345680Y96366D01*
D02*
G37*
G36*
X228557Y92858D02*
X227435D01*
X226350Y92568D01*
X225378Y92006D01*
X224584Y91212D01*
X224023Y90240D01*
X223732Y89156D01*
Y88033D01*
X224023Y86949D01*
X224584Y85976D01*
X225378Y85183D01*
X226350Y84621D01*
X227435Y84331D01*
X228557D01*
X229642Y84621D01*
X230614Y85183D01*
X231408Y85976D01*
X231969Y86949D01*
X232260Y88033D01*
Y89156D01*
X231969Y90240D01*
X231408Y91212D01*
X230614Y92006D01*
X229642Y92568D01*
X228557Y92858D01*
D02*
G37*
G36*
X173077D02*
X171923D01*
X170809Y92560D01*
X169809Y91983D01*
X168994Y91167D01*
X168417Y90168D01*
X168118Y89053D01*
Y87900D01*
X168417Y86785D01*
X168994Y85786D01*
X169809Y84970D01*
X170809Y84393D01*
X171923Y84095D01*
X173077D01*
X174191Y84393D01*
X175190Y84970D01*
X176006Y85786D01*
X176583Y86785D01*
X176882Y87900D01*
Y89053D01*
X176583Y90168D01*
X176006Y91167D01*
X175190Y91983D01*
X174191Y92560D01*
X173077Y92858D01*
D02*
G37*
G36*
X156077D02*
X154923D01*
X153809Y92560D01*
X152810Y91983D01*
X151994Y91167D01*
X151417Y90168D01*
X151118Y89053D01*
Y87900D01*
X151417Y86785D01*
X151994Y85786D01*
X152810Y84970D01*
X153809Y84393D01*
X154923Y84095D01*
X156077D01*
X157191Y84393D01*
X158191Y84970D01*
X159006Y85786D01*
X159583Y86785D01*
X159882Y87900D01*
Y89053D01*
X159583Y90168D01*
X159006Y91167D01*
X158191Y91983D01*
X157191Y92560D01*
X156077Y92858D01*
D02*
G37*
G36*
X302493Y93020D02*
X301303D01*
X300153Y92712D01*
X299123Y92117D01*
X298281Y91275D01*
X297686Y90245D01*
X297378Y89095D01*
Y87905D01*
X297686Y86756D01*
X298281Y85725D01*
X299123Y84883D01*
X300153Y84288D01*
X301303Y83980D01*
X302493D01*
X303642Y84288D01*
X304673Y84883D01*
X305514Y85725D01*
X306109Y86756D01*
X306417Y87905D01*
Y89095D01*
X306109Y90245D01*
X305514Y91275D01*
X304673Y92117D01*
X303642Y92712D01*
X302493Y93020D01*
D02*
G37*
G36*
X13476Y88728D02*
X13249D01*
X11843Y88352D01*
X10582Y87624D01*
X9553Y86595D01*
X8826Y85334D01*
X8449Y83929D01*
Y83701D01*
X13476D01*
Y88728D01*
D02*
G37*
G36*
X185504Y81839D02*
Y79094D01*
X188249D01*
X188045Y79854D01*
X187616Y80598D01*
X187008Y81206D01*
X186264Y81636D01*
X185504Y81839D01*
D02*
G37*
G36*
X184504D02*
X183744Y81636D01*
X183000Y81206D01*
X182392Y80598D01*
X181963Y79854D01*
X181759Y79094D01*
X184504D01*
Y81839D01*
D02*
G37*
G36*
X19504Y82701D02*
X14476D01*
Y77673D01*
X14704D01*
X16110Y78050D01*
X17370Y78778D01*
X18399Y79807D01*
X19127Y81067D01*
X19504Y82473D01*
Y82701D01*
D02*
G37*
G36*
X13476D02*
X8449D01*
Y82473D01*
X8826Y81067D01*
X9553Y79807D01*
X10582Y78778D01*
X11843Y78050D01*
X13249Y77673D01*
X13476D01*
Y82701D01*
D02*
G37*
G36*
X100842Y80143D02*
Y77500D01*
X103486D01*
X103292Y78222D01*
X102875Y78944D01*
X102286Y79533D01*
X101564Y79950D01*
X100842Y80143D01*
D02*
G37*
G36*
X99843D02*
X99121Y79950D01*
X98399Y79533D01*
X97810Y78944D01*
X97393Y78222D01*
X97199Y77500D01*
X99843D01*
Y80143D01*
D02*
G37*
G36*
X188249Y78095D02*
X185504D01*
Y75349D01*
X186264Y75553D01*
X187008Y75983D01*
X187616Y76591D01*
X188045Y77335D01*
X188249Y78095D01*
D02*
G37*
G36*
X184504D02*
X181759D01*
X181963Y77335D01*
X182392Y76591D01*
X183000Y75983D01*
X183744Y75553D01*
X184504Y75349D01*
Y78095D01*
D02*
G37*
G36*
X228557Y82858D02*
X227435D01*
X226350Y82568D01*
X225378Y82006D01*
X224584Y81213D01*
X224023Y80240D01*
X223732Y79156D01*
Y78033D01*
X224023Y76949D01*
X224584Y75977D01*
X225378Y75183D01*
X226350Y74621D01*
X227435Y74331D01*
X228557D01*
X229642Y74621D01*
X230614Y75183D01*
X231408Y75977D01*
X231969Y76949D01*
X232260Y78033D01*
Y79156D01*
X231969Y80240D01*
X231408Y81213D01*
X230614Y82006D01*
X229642Y82568D01*
X228557Y82858D01*
D02*
G37*
G36*
X337520Y83020D02*
X328480D01*
Y73980D01*
X337520D01*
Y83020D01*
D02*
G37*
G36*
X302493D02*
X301303D01*
X300153Y82712D01*
X299123Y82117D01*
X298281Y81275D01*
X297686Y80244D01*
X297378Y79095D01*
Y77905D01*
X297686Y76755D01*
X298281Y75725D01*
X299123Y74883D01*
X300153Y74288D01*
X301303Y73980D01*
X302493D01*
X303642Y74288D01*
X304673Y74883D01*
X305514Y75725D01*
X306109Y76755D01*
X306417Y77905D01*
Y79095D01*
X306109Y80244D01*
X305514Y81275D01*
X304673Y82117D01*
X303642Y82712D01*
X302493Y83020D01*
D02*
G37*
G36*
X103486Y76500D02*
X100842D01*
Y73857D01*
X101564Y74050D01*
X102286Y74467D01*
X102875Y75056D01*
X103292Y75778D01*
X103486Y76500D01*
D02*
G37*
G36*
X99843D02*
X97199D01*
X97393Y75778D01*
X97810Y75056D01*
X98399Y74467D01*
X99121Y74050D01*
X99843Y73857D01*
Y76500D01*
D02*
G37*
G36*
X287577Y81906D02*
X286423D01*
X285309Y81607D01*
X284310Y81030D01*
X283494Y80214D01*
X282917Y79215D01*
X282618Y78101D01*
Y76947D01*
X282917Y75832D01*
X283494Y74833D01*
X284310Y74017D01*
X285309Y73440D01*
X286423Y73142D01*
X287577D01*
X288691Y73440D01*
X289690Y74017D01*
X290506Y74833D01*
X291083Y75832D01*
X291382Y76947D01*
Y78101D01*
X291083Y79215D01*
X290506Y80214D01*
X289690Y81030D01*
X288691Y81607D01*
X287577Y81906D01*
D02*
G37*
G36*
X271561Y74268D02*
X270439D01*
X269354Y73977D01*
X268382Y73416D01*
X267588Y72622D01*
X267027Y71650D01*
X266736Y70565D01*
Y69443D01*
X267027Y68358D01*
X267588Y67386D01*
X268382Y66592D01*
X269354Y66031D01*
X270439Y65740D01*
X271561D01*
X272646Y66031D01*
X273618Y66592D01*
X274412Y67386D01*
X274973Y68358D01*
X275264Y69443D01*
Y70565D01*
X274973Y71650D01*
X274412Y72622D01*
X273618Y73416D01*
X272646Y73977D01*
X271561Y74268D01*
D02*
G37*
G36*
X261561D02*
X260439D01*
X259354Y73977D01*
X258382Y73416D01*
X257588Y72622D01*
X257027Y71650D01*
X256736Y70565D01*
Y69443D01*
X257027Y68358D01*
X257588Y67386D01*
X258382Y66592D01*
X259354Y66031D01*
X260439Y65740D01*
X261561D01*
X262646Y66031D01*
X263618Y66592D01*
X264412Y67386D01*
X264973Y68358D01*
X265264Y69443D01*
Y70565D01*
X264973Y71650D01*
X264412Y72622D01*
X263618Y73416D01*
X262646Y73977D01*
X261561Y74268D01*
D02*
G37*
G36*
X251561D02*
X250439D01*
X249354Y73977D01*
X248382Y73416D01*
X247588Y72622D01*
X247027Y71650D01*
X246736Y70565D01*
Y69443D01*
X247027Y68358D01*
X247588Y67386D01*
X248382Y66592D01*
X249354Y66031D01*
X250439Y65740D01*
X251561D01*
X252646Y66031D01*
X253618Y66592D01*
X254412Y67386D01*
X254973Y68358D01*
X255264Y69443D01*
Y70565D01*
X254973Y71650D01*
X254412Y72622D01*
X253618Y73416D01*
X252646Y73977D01*
X251561Y74268D01*
D02*
G37*
G36*
X241561D02*
X240439D01*
X239354Y73977D01*
X238382Y73416D01*
X237588Y72622D01*
X237027Y71650D01*
X236736Y70565D01*
Y69443D01*
X237027Y68358D01*
X237588Y67386D01*
X238382Y66592D01*
X239354Y66031D01*
X240439Y65740D01*
X241561D01*
X242646Y66031D01*
X243618Y66592D01*
X244412Y67386D01*
X244973Y68358D01*
X245264Y69443D01*
Y70565D01*
X244973Y71650D01*
X244412Y72622D01*
X243618Y73416D01*
X242646Y73977D01*
X241561Y74268D01*
D02*
G37*
G36*
X363358Y67782D02*
Y65220D01*
X365920D01*
X365735Y65912D01*
X365328Y66616D01*
X364754Y67190D01*
X364050Y67597D01*
X363358Y67782D01*
D02*
G37*
G36*
X362358D02*
X361667Y67597D01*
X360963Y67190D01*
X360388Y66616D01*
X359982Y65912D01*
X359797Y65220D01*
X362358D01*
Y67782D01*
D02*
G37*
G36*
X228557Y72858D02*
X227435D01*
X226350Y72568D01*
X225378Y72006D01*
X224584Y71213D01*
X224023Y70240D01*
X223732Y69156D01*
Y68033D01*
X224023Y66949D01*
X224584Y65977D01*
X225378Y65183D01*
X226350Y64621D01*
X227435Y64331D01*
X228557D01*
X229642Y64621D01*
X230614Y65183D01*
X231408Y65977D01*
X231969Y66949D01*
X232260Y68033D01*
Y69156D01*
X231969Y70240D01*
X231408Y71213D01*
X230614Y72006D01*
X229642Y72568D01*
X228557Y72858D01*
D02*
G37*
G36*
X185565D02*
X184443D01*
X183358Y72568D01*
X182386Y72006D01*
X181592Y71213D01*
X181031Y70240D01*
X180740Y69156D01*
Y68033D01*
X181031Y66949D01*
X181592Y65977D01*
X182386Y65183D01*
X183358Y64621D01*
X184443Y64331D01*
X185565D01*
X186650Y64621D01*
X187622Y65183D01*
X188416Y65977D01*
X188977Y66949D01*
X189268Y68033D01*
Y69156D01*
X188977Y70240D01*
X188416Y71213D01*
X187622Y72006D01*
X186650Y72568D01*
X185565Y72858D01*
D02*
G37*
G36*
X365920Y64220D02*
X363358D01*
Y61659D01*
X364050Y61844D01*
X364754Y62251D01*
X365328Y62825D01*
X365735Y63529D01*
X365920Y64220D01*
D02*
G37*
G36*
X362358D02*
X359797D01*
X359982Y63529D01*
X360388Y62825D01*
X360963Y62251D01*
X361667Y61844D01*
X362358Y61659D01*
Y64220D01*
D02*
G37*
G36*
X173077Y64906D02*
X171923D01*
X170809Y64607D01*
X169809Y64030D01*
X168994Y63214D01*
X168417Y62215D01*
X168118Y61101D01*
Y59947D01*
X168417Y58832D01*
X168994Y57833D01*
X169809Y57017D01*
X170809Y56440D01*
X171923Y56142D01*
X173077D01*
X174191Y56440D01*
X175190Y57017D01*
X176006Y57833D01*
X176583Y58832D01*
X176882Y59947D01*
Y61101D01*
X176583Y62215D01*
X176006Y63214D01*
X175190Y64030D01*
X174191Y64607D01*
X173077Y64906D01*
D02*
G37*
G36*
X185565Y62858D02*
X184443D01*
X183358Y62568D01*
X182386Y62006D01*
X181592Y61212D01*
X181031Y60240D01*
X180740Y59156D01*
Y58033D01*
X181031Y56949D01*
X181592Y55976D01*
X182386Y55183D01*
X183358Y54621D01*
X184443Y54331D01*
X185565D01*
X186650Y54621D01*
X187622Y55183D01*
X188416Y55976D01*
X188977Y56949D01*
X189268Y58033D01*
Y59156D01*
X188977Y60240D01*
X188416Y61212D01*
X187622Y62006D01*
X186650Y62568D01*
X185565Y62858D01*
D02*
G37*
G36*
X32336Y54079D02*
X29122D01*
Y50865D01*
X30057Y51116D01*
X30904Y51605D01*
X31596Y52297D01*
X32085Y53144D01*
X32336Y54079D01*
D02*
G37*
G36*
X345680Y68807D02*
X344604D01*
X343564Y68529D01*
X342633Y67991D01*
X341872Y67230D01*
X341334Y66298D01*
X341055Y65259D01*
Y64183D01*
X341334Y63143D01*
X341872Y62211D01*
X342633Y61450D01*
X343564Y60912D01*
X344604Y60634D01*
X345306D01*
X354226Y51713D01*
Y46680D01*
X353726Y46614D01*
X353693Y46737D01*
X353101Y47763D01*
X352263Y48601D01*
X351237Y49193D01*
X350092Y49500D01*
X348908D01*
X347763Y49193D01*
X346737Y48601D01*
X345899Y47763D01*
X345307Y46737D01*
X345000Y45592D01*
Y44408D01*
X345307Y43263D01*
X345899Y42237D01*
X346675Y41461D01*
Y20829D01*
X346260Y20589D01*
X345308Y19638D01*
X344636Y18473D01*
X344287Y17173D01*
Y15827D01*
X344636Y14527D01*
X345308Y13362D01*
X345435Y13236D01*
X345244Y12774D01*
X334654D01*
X334463Y13236D01*
X334589Y13362D01*
X335262Y14527D01*
X335610Y15827D01*
Y17173D01*
X335262Y18473D01*
X334589Y19638D01*
X333638Y20589D01*
X333524Y20655D01*
Y42261D01*
X333763Y42399D01*
X334601Y43237D01*
X335193Y44263D01*
X335500Y45408D01*
Y46592D01*
X335193Y47737D01*
X334601Y48763D01*
X333763Y49601D01*
X332737Y50193D01*
X331592Y50500D01*
X330408D01*
X329263Y50193D01*
X328237Y49601D01*
X327399Y48763D01*
X326807Y47737D01*
X326500Y46592D01*
Y45408D01*
X326807Y44263D01*
X327399Y43237D01*
X327976Y42660D01*
Y20944D01*
X327362Y20589D01*
X326411Y19638D01*
X325738Y18473D01*
X325390Y17173D01*
Y15827D01*
X325738Y14527D01*
X326411Y13362D01*
X326537Y13236D01*
X326346Y12774D01*
X259649D01*
X253461Y18961D01*
X252887Y19402D01*
X252218Y19679D01*
X251500Y19774D01*
X237243D01*
X236993Y20207D01*
X237107Y20405D01*
X237405Y21519D01*
Y22673D01*
X237107Y23787D01*
X236530Y24787D01*
X235714Y25602D01*
X234715Y26179D01*
X233600Y26478D01*
X232447D01*
X231332Y26179D01*
X230333Y25602D01*
X229517Y24787D01*
X228940Y23787D01*
X228642Y22673D01*
Y21519D01*
X228940Y20405D01*
X229055Y20207D01*
X228805Y19774D01*
X102774D01*
X102058Y20491D01*
X101108Y21039D01*
X100048Y21323D01*
X98952D01*
X97892Y21039D01*
X96942Y20491D01*
X96341Y19890D01*
X76159D01*
X75558Y20491D01*
X74608Y21039D01*
X73548Y21323D01*
X72452D01*
X71392Y21039D01*
X70442Y20491D01*
X69667Y19715D01*
X69118Y18765D01*
X68835Y17706D01*
Y16609D01*
X69118Y15550D01*
X69667Y14600D01*
X70442Y13824D01*
X71392Y13276D01*
X72452Y12992D01*
X73548D01*
X74608Y13276D01*
X75558Y13824D01*
X76075Y14342D01*
X96425D01*
X96942Y13824D01*
X97892Y13276D01*
X98952Y12992D01*
X100048D01*
X101108Y13276D01*
X102058Y13824D01*
X102460Y14226D01*
X250351D01*
X256539Y8039D01*
X257113Y7598D01*
X257782Y7321D01*
X258500Y7226D01*
X353500D01*
X354218Y7321D01*
X354887Y7598D01*
X355461Y8039D01*
X358961Y11539D01*
X359402Y12113D01*
X359679Y12782D01*
X359774Y13500D01*
Y52862D01*
X359679Y53580D01*
X359402Y54249D01*
X358961Y54823D01*
X349228Y64556D01*
Y65259D01*
X348950Y66298D01*
X348412Y67230D01*
X347651Y67991D01*
X346719Y68529D01*
X345680Y68807D01*
D02*
G37*
G36*
X261476Y48271D02*
Y45404D01*
X264344D01*
X264128Y46209D01*
X263683Y46981D01*
X263053Y47610D01*
X262282Y48055D01*
X261476Y48271D01*
D02*
G37*
G36*
X260476Y48271D02*
X259671Y48055D01*
X258900Y47610D01*
X258270Y46981D01*
X257825Y46209D01*
X257609Y45404D01*
X260476D01*
Y48271D01*
D02*
G37*
G36*
X70500Y47499D02*
Y45142D01*
X72858D01*
X72693Y45757D01*
X72312Y46416D01*
X71774Y46954D01*
X71115Y47335D01*
X70500Y47499D01*
D02*
G37*
G36*
X60000D02*
Y45142D01*
X62358D01*
X62193Y45757D01*
X61812Y46416D01*
X61274Y46954D01*
X60615Y47335D01*
X60000Y47499D01*
D02*
G37*
G36*
X49500D02*
Y45142D01*
X51858D01*
X51693Y45757D01*
X51312Y46416D01*
X50774Y46954D01*
X50115Y47335D01*
X49500Y47499D01*
D02*
G37*
G36*
X69500Y47499D02*
X68885Y47335D01*
X68226Y46954D01*
X67688Y46416D01*
X67307Y45757D01*
X67142Y45142D01*
X69500D01*
Y47499D01*
D02*
G37*
G36*
X59000D02*
X58385Y47335D01*
X57726Y46954D01*
X57188Y46416D01*
X56807Y45757D01*
X56642Y45142D01*
X59000D01*
Y47499D01*
D02*
G37*
G36*
X48500D02*
X47885Y47335D01*
X47226Y46954D01*
X46688Y46416D01*
X46307Y45757D01*
X46142Y45142D01*
X48500D01*
Y47499D01*
D02*
G37*
G36*
X292077Y51858D02*
X290923D01*
X289809Y51560D01*
X288809Y50983D01*
X287994Y50167D01*
X287417Y49168D01*
X287118Y48053D01*
Y46900D01*
X287417Y45785D01*
X287994Y44786D01*
X288809Y43970D01*
X289809Y43393D01*
X290923Y43095D01*
X292077D01*
X293191Y43393D01*
X294191Y43970D01*
X295006Y44786D01*
X295583Y45785D01*
X295882Y46900D01*
Y48053D01*
X295583Y49168D01*
X295006Y50167D01*
X294191Y50983D01*
X293191Y51560D01*
X292077Y51858D01*
D02*
G37*
G36*
X273577D02*
X272423D01*
X271309Y51560D01*
X270309Y50983D01*
X269494Y50167D01*
X268917Y49168D01*
X268618Y48053D01*
Y46900D01*
X268917Y45785D01*
X269494Y44786D01*
X270309Y43970D01*
X271309Y43393D01*
X272423Y43095D01*
X273577D01*
X274691Y43393D01*
X275691Y43970D01*
X276506Y44786D01*
X277083Y45785D01*
X277382Y46900D01*
Y48053D01*
X277083Y49168D01*
X276506Y50167D01*
X275691Y50983D01*
X274691Y51560D01*
X273577Y51858D01*
D02*
G37*
G36*
X72858Y44142D02*
X70500D01*
Y41784D01*
X71115Y41949D01*
X71774Y42329D01*
X72312Y42867D01*
X72693Y43526D01*
X72858Y44142D01*
D02*
G37*
G36*
X62358D02*
X60000D01*
Y41784D01*
X60615Y41949D01*
X61274Y42329D01*
X61812Y42867D01*
X62193Y43526D01*
X62358Y44142D01*
D02*
G37*
G36*
X51858D02*
X49500D01*
Y41784D01*
X50115Y41949D01*
X50774Y42329D01*
X51312Y42867D01*
X51693Y43526D01*
X51858Y44142D01*
D02*
G37*
G36*
X69500D02*
X67142D01*
X67307Y43526D01*
X67688Y42867D01*
X68226Y42329D01*
X68885Y41949D01*
X69500Y41784D01*
Y44142D01*
D02*
G37*
G36*
X59000D02*
X56642D01*
X56807Y43526D01*
X57188Y42867D01*
X57726Y42329D01*
X58385Y41949D01*
X59000Y41784D01*
Y44142D01*
D02*
G37*
G36*
X48500D02*
X46142D01*
X46307Y43526D01*
X46688Y42867D01*
X47226Y42329D01*
X47885Y41949D01*
X48500Y41784D01*
Y44142D01*
D02*
G37*
G36*
X264344Y44404D02*
X261476D01*
Y41537D01*
X262282Y41752D01*
X263053Y42198D01*
X263683Y42827D01*
X264128Y43599D01*
X264344Y44404D01*
D02*
G37*
G36*
X260476D02*
X257609D01*
X257825Y43599D01*
X258270Y42827D01*
X258900Y42198D01*
X259671Y41752D01*
X260476Y41537D01*
Y44404D01*
D02*
G37*
G36*
X14704Y41327D02*
X14476D01*
Y36299D01*
X19504D01*
Y36527D01*
X19127Y37933D01*
X18399Y39193D01*
X17370Y40222D01*
X16110Y40950D01*
X14704Y41327D01*
D02*
G37*
G36*
X13476D02*
X13249D01*
X11843Y40950D01*
X10582Y40222D01*
X9553Y39193D01*
X8826Y37933D01*
X8449Y36527D01*
Y36299D01*
X13476D01*
Y41327D01*
D02*
G37*
G36*
X192657Y38143D02*
Y35500D01*
X195300D01*
X195107Y36222D01*
X194690Y36944D01*
X194101Y37533D01*
X193379Y37950D01*
X192657Y38143D01*
D02*
G37*
G36*
X191657D02*
X190936Y37950D01*
X190214Y37533D01*
X189625Y36944D01*
X189208Y36222D01*
X189014Y35500D01*
X191657D01*
Y38143D01*
D02*
G37*
G36*
X311390Y40638D02*
X303610D01*
Y32858D01*
X311390D01*
Y40638D01*
D02*
G37*
G36*
X181986Y34500D02*
X179342D01*
Y31857D01*
X180064Y32050D01*
X180786Y32467D01*
X181375Y33056D01*
X181792Y33778D01*
X181986Y34500D01*
D02*
G37*
G36*
X195300D02*
X192657D01*
Y31857D01*
X193379Y32050D01*
X194101Y32467D01*
X194690Y33056D01*
X195107Y33778D01*
X195300Y34500D01*
D02*
G37*
G36*
X191657D02*
X189014D01*
X189208Y33778D01*
X189625Y33056D01*
X190214Y32467D01*
X190936Y32050D01*
X191657Y31857D01*
Y34500D01*
D02*
G37*
G36*
X212391Y39165D02*
X211294D01*
X210235Y38881D01*
X209285Y38333D01*
X208509Y37558D01*
X207961Y36608D01*
X207677Y35548D01*
Y34452D01*
X207961Y33392D01*
X208509Y32442D01*
X209285Y31667D01*
X210235Y31119D01*
X211294Y30835D01*
X212391D01*
X213450Y31119D01*
X214400Y31667D01*
X215176Y32442D01*
X215724Y33392D01*
X216008Y34452D01*
Y35548D01*
X215724Y36608D01*
X215176Y37558D01*
X214400Y38333D01*
X213450Y38881D01*
X212391Y39165D01*
D02*
G37*
G36*
X292000Y22891D02*
Y20024D01*
X294867D01*
X294651Y20829D01*
X294206Y21600D01*
X293577Y22230D01*
X292805Y22675D01*
X292000Y22891D01*
D02*
G37*
G36*
X291000D02*
X290195Y22675D01*
X289423Y22230D01*
X288794Y21600D01*
X288349Y20829D01*
X288133Y20024D01*
X291000D01*
Y22891D01*
D02*
G37*
G36*
X308000Y21889D02*
Y19532D01*
X310358D01*
X310193Y20147D01*
X309812Y20806D01*
X309274Y21344D01*
X308615Y21724D01*
X308000Y21889D01*
D02*
G37*
G36*
X307000D02*
X306385Y21724D01*
X305726Y21344D01*
X305188Y20806D01*
X304807Y20147D01*
X304642Y19532D01*
X307000D01*
Y21889D01*
D02*
G37*
G36*
X261553Y26478D02*
X260400D01*
X259285Y26179D01*
X258286Y25602D01*
X257470Y24787D01*
X256893Y23787D01*
X256594Y22673D01*
Y21519D01*
X256893Y20405D01*
X257470Y19406D01*
X258286Y18590D01*
X259285Y18013D01*
X260400Y17714D01*
X261553D01*
X262668Y18013D01*
X263667Y18590D01*
X264483Y19406D01*
X265060Y20405D01*
X265358Y21519D01*
Y22673D01*
X265060Y23787D01*
X264483Y24787D01*
X263667Y25602D01*
X262668Y26179D01*
X261553Y26478D01*
D02*
G37*
G36*
X310358Y18531D02*
X308000D01*
Y16174D01*
X308615Y16339D01*
X309274Y16719D01*
X309812Y17257D01*
X310193Y17916D01*
X310358Y18531D01*
D02*
G37*
G36*
X307000D02*
X304642D01*
X304807Y17916D01*
X305188Y17257D01*
X305726Y16719D01*
X306385Y16339D01*
X307000Y16174D01*
Y18531D01*
D02*
G37*
G36*
X294867Y19024D02*
X292000D01*
Y16156D01*
X292805Y16372D01*
X293577Y16817D01*
X294206Y17447D01*
X294651Y18218D01*
X294867Y19024D01*
D02*
G37*
G36*
X291000D02*
X288133D01*
X288349Y18218D01*
X288794Y17447D01*
X289423Y16817D01*
X290195Y16372D01*
X291000Y16156D01*
Y19024D01*
D02*
G37*
G36*
X273577Y23905D02*
X272423D01*
X271309Y23607D01*
X270309Y23030D01*
X269494Y22214D01*
X268917Y21215D01*
X268618Y20100D01*
Y18947D01*
X268917Y17832D01*
X269494Y16833D01*
X270309Y16017D01*
X271309Y15440D01*
X272423Y15142D01*
X273577D01*
X274691Y15440D01*
X275691Y16017D01*
X276506Y16833D01*
X277083Y17832D01*
X277382Y18947D01*
Y20100D01*
X277083Y21215D01*
X276506Y22214D01*
X275691Y23030D01*
X274691Y23607D01*
X273577Y23905D01*
D02*
G37*
%LPD*%
G36*
X75096Y99412D02*
Y99216D01*
X74744Y98608D01*
X74461Y97548D01*
Y96452D01*
X74744Y95392D01*
X75096Y94784D01*
Y83988D01*
X74596Y83819D01*
X74339Y84154D01*
X68967Y89525D01*
Y94784D01*
X69318Y95392D01*
X69602Y96452D01*
Y97548D01*
X69318Y98608D01*
X68770Y99558D01*
X67995Y100333D01*
X67045Y100882D01*
X65985Y101165D01*
X64889D01*
X63829Y100882D01*
X62879Y100333D01*
X62104Y99558D01*
X61555Y98608D01*
X61272Y97548D01*
Y96452D01*
X61555Y95392D01*
X61907Y94784D01*
Y88063D01*
X62027Y87149D01*
X62380Y86298D01*
X62941Y85567D01*
X68312Y80195D01*
Y79216D01*
X67961Y78608D01*
X67677Y77548D01*
Y76452D01*
X67961Y75392D01*
X68312Y74784D01*
Y72658D01*
X68433Y71744D01*
X68785Y70892D01*
X69346Y70161D01*
X72798Y66710D01*
X72606Y66248D01*
X71103D01*
X66364Y70987D01*
Y79166D01*
X66243Y80080D01*
X65891Y80932D01*
X65330Y81663D01*
X54530Y92462D01*
Y93835D01*
X57063D01*
Y97000D01*
Y100165D01*
X56311D01*
X56120Y100627D01*
X57462Y101970D01*
X72538D01*
X75096Y99412D01*
D02*
G37*
G36*
X88919Y100627D02*
X88727Y100165D01*
X87000D01*
Y97500D01*
X89665D01*
Y98692D01*
X90165Y98959D01*
X90226Y98918D01*
Y68562D01*
X89438Y67774D01*
X89000D01*
X88593Y67720D01*
X88093Y68103D01*
Y74094D01*
X87973Y75008D01*
X87620Y75860D01*
X87059Y76591D01*
X83654Y79996D01*
X83216Y80332D01*
X83215Y80333D01*
X83214Y80334D01*
X82923Y80557D01*
X82584Y80698D01*
X82265Y80882D01*
X82156Y80911D01*
Y94784D01*
X82507Y95392D01*
X82791Y96452D01*
Y97548D01*
X82507Y98608D01*
X82156Y99216D01*
Y100874D01*
X82036Y101788D01*
X81683Y102639D01*
X81122Y103370D01*
X76766Y107726D01*
X76973Y108226D01*
X81320D01*
X88919Y100627D01*
D02*
G37*
G36*
X122537Y86459D02*
X123459Y85537D01*
X124588Y84885D01*
X125848Y84547D01*
X127152D01*
X128412Y84885D01*
X129541Y85537D01*
X130463Y86459D01*
X130726Y86915D01*
X131226Y86781D01*
Y68649D01*
X129791Y67213D01*
X129541Y67463D01*
X128412Y68115D01*
X127152Y68453D01*
X125848D01*
X124588Y68115D01*
X123459Y67463D01*
X122537Y66541D01*
X121953Y65529D01*
X121453Y65663D01*
Y68453D01*
X113529D01*
X113337Y68915D01*
X118461Y74039D01*
X118902Y74613D01*
X119179Y75282D01*
X119274Y76000D01*
Y84547D01*
X121453D01*
Y87337D01*
X121953Y87471D01*
X122537Y86459D01*
D02*
G37*
G36*
X47470Y99864D02*
Y91000D01*
X47590Y90086D01*
X47943Y89235D01*
X48504Y88504D01*
X59303Y77704D01*
Y69525D01*
X59424Y68611D01*
X59776Y67760D01*
X60292Y67088D01*
X59930Y66738D01*
X59320Y67239D01*
X58305Y67781D01*
X57203Y68116D01*
X56245Y68210D01*
X56058Y68247D01*
X39000D01*
X38831Y68213D01*
X37785Y68110D01*
X37043Y67885D01*
X36543Y68256D01*
Y80500D01*
X36371Y81805D01*
X35868Y83022D01*
X35066Y84066D01*
X33917Y85215D01*
X34066Y85773D01*
X34691Y85940D01*
X35691Y86517D01*
X36506Y87333D01*
X37083Y88332D01*
X37382Y89447D01*
Y90483D01*
X46970Y100071D01*
X47470Y99864D01*
D02*
G37*
G36*
X76220Y63288D02*
Y59758D01*
X76340Y58844D01*
X76511Y58431D01*
X76177Y57931D01*
X58887D01*
X58844Y57968D01*
X59030Y58469D01*
X63390D01*
Y63323D01*
X63852Y63514D01*
X66110Y61256D01*
Y58469D01*
X73890D01*
Y64964D01*
X74352Y65156D01*
X76220Y63288D01*
D02*
G37*
%LPC*%
G36*
X60728Y100165D02*
X58063D01*
Y97500D01*
X60728D01*
Y100165D01*
D02*
G37*
G36*
Y96500D02*
X58063D01*
Y93835D01*
X60728D01*
Y96500D01*
D02*
G37*
G36*
X86000Y100165D02*
X83335D01*
Y97500D01*
X86000D01*
Y100165D01*
D02*
G37*
G36*
X89665Y96500D02*
X87000D01*
Y93835D01*
X89665D01*
Y96500D01*
D02*
G37*
G36*
X86000D02*
X83335D01*
Y93835D01*
X86000D01*
Y96500D01*
D02*
G37*
G36*
X52658Y80143D02*
Y77500D01*
X55300D01*
X55107Y78222D01*
X54690Y78944D01*
X54101Y79533D01*
X53379Y79950D01*
X52658Y80143D01*
D02*
G37*
G36*
X51657D02*
X50936Y79950D01*
X50214Y79533D01*
X49625Y78944D01*
X49208Y78222D01*
X49014Y77500D01*
X51657D01*
Y80143D01*
D02*
G37*
G36*
X55300Y76500D02*
X52658D01*
Y73857D01*
X53379Y74050D01*
X54101Y74467D01*
X54690Y75056D01*
X55107Y75778D01*
X55300Y76500D01*
D02*
G37*
G36*
X51657D02*
X49014D01*
X49208Y75778D01*
X49625Y75056D01*
X50214Y74467D01*
X50936Y74050D01*
X51657Y73857D01*
Y76500D01*
D02*
G37*
%LPD*%
G36*
X354226Y43320D02*
Y19357D01*
X353726Y19223D01*
X353487Y19638D01*
X352535Y20589D01*
X352223Y20770D01*
Y41376D01*
X352263Y41399D01*
X353101Y42237D01*
X353693Y43263D01*
X353726Y43386D01*
X354226Y43320D01*
D02*
G37*
D31*
X11563Y100437D02*
X31500Y80500D01*
Y67562D02*
Y80500D01*
X11563Y100437D02*
Y126000D01*
X28712Y64774D02*
X31500Y67562D01*
X64000Y124500D02*
X77476Y137976D01*
X51000Y124500D02*
X64000D01*
X113500Y137976D02*
X131000D01*
X212500Y97000D02*
X217500Y102000D01*
X190500Y97000D02*
X212500D01*
X217500Y102000D02*
Y105157D01*
X182500Y105000D02*
X190500Y97000D01*
X182500Y105000D02*
Y114500D01*
X115893Y181107D02*
X182500Y114500D01*
X115893Y181107D02*
Y195607D01*
X143000Y63712D02*
Y139000D01*
X117437Y164563D02*
X143000Y139000D01*
X85000Y164563D02*
X117437D01*
X77476Y137976D02*
X113500D01*
X92500Y219000D02*
X115893Y195607D01*
X84500Y219000D02*
X92500D01*
X143000Y63712D02*
X159158Y47554D01*
X85000Y164563D02*
X85000Y164563D01*
X159158Y35000D02*
Y47554D01*
D32*
X327331Y88500D02*
G03*
X326767Y88267I0J-800D01*
G01*
X321731Y83231D02*
G03*
X321500Y82673I569J-563D01*
G01*
X349449Y44949D02*
X349500Y45000D01*
X349449Y16551D02*
Y44949D01*
X349398Y16500D02*
X349449Y16551D01*
X330750Y45750D02*
X331000Y46000D01*
X330500Y16500D02*
X330750Y16750D01*
Y45750D01*
X357000Y13500D02*
Y52862D01*
X353500Y10000D02*
X357000Y13500D01*
X258500Y10000D02*
X353500D01*
X345142Y64720D02*
X357000Y52862D01*
X146500Y184858D02*
X159358Y172000D01*
X153956Y188403D02*
X159358Y183000D01*
X153956Y216500D02*
X156956Y219500D01*
X146500Y184858D02*
Y202949D01*
X159358Y202909D02*
X175949Y219500D01*
X159358Y194000D02*
Y202909D01*
X153956Y188403D02*
Y216500D01*
X129449Y220000D02*
X146500Y202949D01*
X89000Y65000D02*
X90587D01*
X93000Y67413D01*
X53976Y111000D02*
X82469D01*
X93000Y100469D01*
Y67413D02*
Y100469D01*
X33000Y90024D02*
X53976Y111000D01*
X101453Y57453D02*
X110453D01*
X116500Y63500D01*
Y76000D02*
Y89500D01*
X99921Y59421D02*
X116500Y76000D01*
X251500Y17000D02*
X258500Y10000D01*
X101794Y17000D02*
X251500D01*
X99500Y17658D02*
X100042Y17116D01*
X101678D01*
X101794Y17000D01*
X73042Y17116D02*
X99500D01*
X228247Y50000D02*
X240247Y62000D01*
X303500D01*
X183000Y50000D02*
X228247D01*
X163500Y30500D02*
X183000Y50000D01*
X94600Y26900D02*
X163153D01*
X181203Y44950D01*
X226450D01*
X94500Y30500D02*
X157223D01*
X157273Y30450D01*
X161042D01*
X161092Y30500D01*
X163500D01*
X91453Y33547D02*
X94500Y30500D01*
X79343Y36843D02*
X85547Y43047D01*
X73000Y36843D02*
X79343D01*
X99500Y37343D02*
Y46939D01*
X245416Y128092D02*
X278908D01*
X236031Y137476D02*
X245416Y128092D01*
X193500Y137476D02*
X236031D01*
X320499Y108500D02*
X333000D01*
X315499Y113499D02*
X320499Y108500D01*
X293501Y113499D02*
X315499D01*
X278908Y128092D02*
X293501Y113499D01*
X246551Y178500D02*
X301898D01*
X212551Y212500D02*
X246551Y178500D01*
X255449Y188500D02*
X301898D01*
X231449Y212500D02*
X255449Y188500D01*
X279500Y198500D02*
X301898D01*
X262000Y216000D02*
X279500Y198500D01*
X131758Y107815D02*
X134000Y105573D01*
X130184Y63684D02*
X134000Y67500D01*
Y105573D01*
X131758Y107815D02*
Y109265D01*
X126500Y63500D02*
X126684Y63684D01*
X130184D01*
X131000Y110024D02*
X131758Y109265D01*
X113500Y110024D02*
X126500Y97024D01*
Y89500D02*
Y97024D01*
X280898Y216000D02*
Y220000D01*
X262000Y216000D02*
Y220000D01*
X231449Y212500D02*
Y220000D01*
X212551Y212500D02*
Y220000D01*
X226450Y44950D02*
X238500Y57000D01*
X306000D01*
X288398Y208500D02*
X301898D01*
X280898Y216000D02*
X288398Y208500D01*
X321500Y72500D02*
Y82673D01*
X327331Y88500D02*
X333000D01*
X321731Y83231D02*
X326767Y88267D01*
X306000Y57000D02*
X321500Y72500D01*
X89484Y32016D02*
X94600Y26900D01*
X319000Y98500D02*
X333000D01*
X313500Y93000D02*
X319000Y98500D01*
X313500Y72000D02*
Y93000D01*
X303500Y62000D02*
X313500Y72000D01*
X296362Y148019D02*
X301417D01*
X301898Y148500D01*
X290342Y142000D02*
X296362Y148019D01*
D33*
X81157Y77500D02*
X84563Y74094D01*
Y61929D02*
Y74094D01*
X78626Y97000D02*
Y100874D01*
X79750Y59758D02*
X81071Y58437D01*
X79750Y59758D02*
Y64750D01*
X56000Y105500D02*
X74000D01*
X51000Y100500D02*
X56000Y105500D01*
X51000Y91000D02*
Y100500D01*
X78626Y79392D02*
Y97000D01*
X80658Y77000D02*
Y77360D01*
X78626Y79392D02*
X80658Y77360D01*
X74000Y105500D02*
X78626Y100874D01*
X51000Y91000D02*
X62834Y79166D01*
Y69525D02*
Y79166D01*
Y69525D02*
X70000Y62358D01*
X290342Y163157D02*
X295000Y158500D01*
X301898D01*
X290342Y163157D02*
Y167500D01*
X301898Y158500D02*
X305898Y154500D01*
X372687Y109500D02*
X373476D01*
X362000D02*
X372687D01*
X305898Y154500D02*
X317000D01*
X333000Y138500D01*
X362000Y109500D01*
X65437Y88063D02*
X71842Y81657D01*
X65437Y88063D02*
Y97000D01*
X71842Y77000D02*
Y81657D01*
Y72658D02*
Y77000D01*
Y72658D02*
X79750Y64750D01*
D34*
X55500Y169000D02*
D03*
Y159000D02*
D03*
Y149000D02*
D03*
X261000Y112996D02*
D03*
X251000D02*
D03*
X241000D02*
D03*
Y70004D02*
D03*
X251000D02*
D03*
X261000D02*
D03*
X271000D02*
D03*
X185004Y78594D02*
D03*
Y68594D02*
D03*
Y58595D02*
D03*
X227996D02*
D03*
Y68594D02*
D03*
Y78594D02*
D03*
Y88595D02*
D03*
X55500Y227000D02*
D03*
Y217000D02*
D03*
Y207000D02*
D03*
D35*
Y139000D02*
D03*
X185004Y88595D02*
D03*
X55500Y197000D02*
D03*
D36*
X333000Y78500D02*
D03*
D37*
Y88500D02*
D03*
Y98500D02*
D03*
Y108500D02*
D03*
Y118500D02*
D03*
Y128500D02*
D03*
Y138500D02*
D03*
Y148500D02*
D03*
Y158500D02*
D03*
Y168500D02*
D03*
Y178500D02*
D03*
Y188500D02*
D03*
Y198500D02*
D03*
Y208500D02*
D03*
X301898D02*
D03*
Y198500D02*
D03*
Y188500D02*
D03*
Y178500D02*
D03*
Y168500D02*
D03*
Y158500D02*
D03*
Y148500D02*
D03*
Y138500D02*
D03*
Y128500D02*
D03*
Y118500D02*
D03*
Y108500D02*
D03*
Y98500D02*
D03*
Y88500D02*
D03*
Y78500D02*
D03*
D38*
X126500Y63500D02*
D03*
Y89500D02*
D03*
D39*
X116500Y63500D02*
D03*
Y89500D02*
D03*
D40*
X347500Y172606D02*
D03*
Y153394D02*
D03*
D41*
X13976Y35799D02*
D03*
Y83201D02*
D03*
D42*
X28622Y54579D02*
D03*
X20748D02*
D03*
X28622Y64421D02*
D03*
X20748D02*
D03*
D43*
X271000Y112996D02*
D03*
D44*
X70000Y62358D02*
D03*
X59500D02*
D03*
X152500Y128248D02*
D03*
X307500Y36748D02*
D03*
X49000Y62358D02*
D03*
D45*
X70000Y44642D02*
D03*
X59500D02*
D03*
X141642Y172000D02*
D03*
X152500Y110531D02*
D03*
X141642Y183000D02*
D03*
Y194000D02*
D03*
X307500Y19031D02*
D03*
X49000Y44642D02*
D03*
D46*
X260976Y22096D02*
D03*
X233024D02*
D03*
X16500Y150913D02*
D03*
Y165087D02*
D03*
X287000Y77524D02*
D03*
Y105476D02*
D03*
X372687Y109500D02*
D03*
X344735D02*
D03*
X193500Y109524D02*
D03*
Y137476D02*
D03*
X173000D02*
D03*
Y109524D02*
D03*
X291500Y19524D02*
D03*
Y47476D02*
D03*
X273000Y19524D02*
D03*
Y47476D02*
D03*
X260976Y44904D02*
D03*
X233024D02*
D03*
X155500Y88476D02*
D03*
Y60524D02*
D03*
X172500D02*
D03*
Y88476D02*
D03*
X131000Y137976D02*
D03*
Y110024D02*
D03*
X113500Y137976D02*
D03*
Y110024D02*
D03*
X33000Y90024D02*
D03*
Y117976D02*
D03*
D47*
X159358Y172000D02*
D03*
Y183000D02*
D03*
Y194000D02*
D03*
D48*
X110551Y220000D02*
D03*
X129449D02*
D03*
X231449D02*
D03*
X212551D02*
D03*
X262000D02*
D03*
X280898D02*
D03*
X330500Y16500D02*
D03*
X349398D02*
D03*
X175949Y220000D02*
D03*
X157051D02*
D03*
D49*
X217500Y105157D02*
D03*
Y124843D02*
D03*
X370000Y185843D02*
D03*
Y166157D02*
D03*
X159158Y35000D02*
D03*
X178842D02*
D03*
X290342Y142000D02*
D03*
X270657D02*
D03*
X211842Y35000D02*
D03*
X192157D02*
D03*
X290342Y167500D02*
D03*
X270657D02*
D03*
X370000Y138657D02*
D03*
Y158343D02*
D03*
X11563Y126000D02*
D03*
X73000Y36843D02*
D03*
Y17157D02*
D03*
X99500Y36843D02*
D03*
Y17157D02*
D03*
X78626Y97000D02*
D03*
X100343Y77000D02*
D03*
X80658D02*
D03*
X52157D02*
D03*
X71842D02*
D03*
X65437Y97000D02*
D03*
X11563Y190500D02*
D03*
X84500Y219000D02*
D03*
Y172437D02*
D03*
D50*
X378000Y16500D02*
D03*
Y221000D02*
D03*
X14000Y16500D02*
D03*
Y221000D02*
D03*
D51*
X345142Y92279D02*
D03*
X362858D02*
D03*
X345142Y64720D02*
D03*
X362858D02*
D03*
D52*
X19437Y126000D02*
D03*
X86500Y97000D02*
D03*
X57563D02*
D03*
X19437Y190500D02*
D03*
D53*
X84500Y211126D02*
D03*
Y164563D02*
D03*
D54*
X349500Y45000D02*
D03*
X331000Y46000D02*
D03*
X51000Y124500D02*
D03*
D55*
X40500Y59895D02*
G03*
X43500Y59895I1500J0D01*
G01*
X36257Y59879D02*
G03*
X37000Y62000I-2657J2121D01*
G01*
X45500Y64000D02*
G03*
X43515Y62245I0J-2000D01*
G01*
X39000Y64000D02*
G03*
X37000Y62000I0J-2000D01*
G01*
X43515Y62245D02*
G03*
X43500Y62000I1985J-245D01*
G01*
X33600Y58600D02*
G03*
X36257Y59879I0J3400D01*
G01*
X40500Y62500D02*
G03*
X39000Y64000I-1500J0D01*
G01*
X53350Y59000D02*
G03*
X49992Y62358I-3358J0D01*
G01*
X49000D02*
G03*
X47358Y64000I-1642J0D01*
G01*
X33600Y60400D02*
G03*
X35200Y62000I0J1600D01*
G01*
X39000Y65800D02*
G03*
X35200Y62000I0J-3800D01*
G01*
X59500Y62358D02*
G03*
X56058Y65800I-3442J0D01*
G01*
X20748Y64421D02*
G03*
X24769Y60400I4021J0D01*
G01*
X58508Y62358D02*
G03*
X55150Y59000I0J-3358D01*
G01*
D02*
G03*
X58666Y55484I3516J0D01*
G01*
X53350Y59000D02*
G03*
X58834Y53516I5484J0D01*
G01*
X24769Y58600D02*
G03*
X20748Y54579I0J-4021D01*
G01*
X43500Y59895D02*
Y62000D01*
X40500Y59895D02*
Y62500D01*
X45500Y64000D02*
X47358D01*
X49000Y62358D02*
X49992D01*
X39000Y65800D02*
X56058D01*
X24769Y60400D02*
X33600D01*
X58508Y62358D02*
X59500D01*
X58666Y55484D02*
X81071D01*
X58834Y53516D02*
X81071D01*
X24769Y58600D02*
X33600D01*
X81071Y51547D02*
X85547D01*
X88500Y54500D01*
X87500Y63500D02*
X89000Y65000D01*
X87516Y61929D02*
X87635Y62049D01*
X95929Y57453D02*
X101453D01*
X95929Y59421D02*
X99921D01*
X85547Y43047D02*
Y47071D01*
X96860Y49579D02*
X99500Y46939D01*
X133000Y110024D02*
Y111149D01*
X89484Y32016D02*
Y47071D01*
X91453Y33547D02*
Y47071D01*
X95929Y49579D02*
X96860D01*
D56*
X81071D02*
D03*
Y51547D02*
D03*
Y53516D02*
D03*
Y55484D02*
D03*
Y57453D02*
D03*
Y59421D02*
D03*
X95929D02*
D03*
Y57453D02*
D03*
Y55484D02*
D03*
Y53516D02*
D03*
Y51547D02*
D03*
Y49579D02*
D03*
D57*
X83579Y61929D02*
D03*
X85547D02*
D03*
X87516D02*
D03*
X89484D02*
D03*
X91453D02*
D03*
X93421D02*
D03*
Y47071D02*
D03*
X91453D02*
D03*
X89484D02*
D03*
X87516D02*
D03*
X85547D02*
D03*
X83579D02*
D03*
D58*
X88500Y54500D02*
D03*
M02*
